<svg width="32" height="32" viewBox="0 0 32 32" fill="none" xmlns="http://www.w3.org/2000/svg">
<g clip-path="url(#clip0_664_1388)">
<path d="M16 6C14.0222 6 12.0888 6.58649 10.4443 7.6853C8.79981 8.78412 7.51809 10.3459 6.76121 12.1732C6.00433 14.0004 5.8063 16.0111 6.19215 17.9509C6.578 19.8907 7.53041 21.6725 8.92894 23.0711C10.3275 24.4696 12.1093 25.422 14.0491 25.8079C15.9889 26.1937 17.9996 25.9957 19.8268 25.2388C21.6541 24.4819 23.2159 23.2002 24.3147 21.5557C25.4135 19.9112 26 17.9778 26 16C26 14.6868 25.7413 13.3864 25.2388 12.1732C24.7363 10.9599 23.9997 9.85752 23.0711 8.92893C22.1425 8.00035 21.0401 7.26375 19.8268 6.7612C18.6136 6.25866 17.3132 6 16 6ZM16 24C14.4178 24 12.871 23.5308 11.5554 22.6518C10.2398 21.7727 9.21447 20.5233 8.60897 19.0615C8.00347 17.5997 7.84504 15.9911 8.15372 14.4393C8.4624 12.8874 9.22433 11.462 10.3432 10.3431C11.462 9.22433 12.8874 8.4624 14.4393 8.15372C15.9911 7.84504 17.5997 8.00346 19.0615 8.60896C20.5233 9.21447 21.7727 10.2398 22.6518 11.5554C23.5308 12.871 24 14.4177 24 16C24 18.1217 23.1572 20.1566 21.6569 21.6569C20.1566 23.1571 18.1217 24 16 24Z" fill="#1786FF"/>
<path d="M16 13C16.5523 13 17 12.5523 17 12C17 11.4477 16.5523 11 16 11C15.4477 11 15 11.4477 15 12C15 12.5523 15.4477 13 16 13Z" fill="#1786FF"/>
<path d="M16 14C15.7348 14 15.4804 14.1054 15.2929 14.2929C15.1054 14.4804 15 14.7348 15 15V20C15 20.2652 15.1054 20.5196 15.2929 20.7071C15.4804 20.8946 15.7348 21 16 21C16.2652 21 16.5196 20.8946 16.7071 20.7071C16.8946 20.5196 17 20.2652 17 20V15C17 14.7348 16.8946 14.4804 16.7071 14.2929C16.5196 14.1054 16.2652 14 16 14Z" fill="#1786FF"/>
</g>
<defs>
<clipPath id="clip0_664_1388">
<rect width="24" height="24" fill="white" transform="translate(4 4)"/>
</clipPath>
</defs>
</svg>
