<svg width="24" height="20" viewBox="0 0 24 20" fill="none" xmlns="http://www.w3.org/2000/svg">
<path d="M8.50463 13.6422C7.4625 13.6422 7.20075 14.0155 6 14.0155C4.80113 14.0155 4.53938 13.6422 3.49538 13.6422C0.792 13.6422 0 15.9234 0 17.1081V18.5046C0 19.331 0.671625 20.0009 1.5 20.0009H10.5C11.3284 20.0009 12 19.331 12 18.5046V17.1081C12 15.51 10.8533 13.6422 8.50463 13.6422ZM10.2 18.2053H1.8V17.1081C1.8 16.584 2.10562 15.4378 3.49538 15.4378C4.14188 15.4378 4.60388 15.8112 6 15.8112C7.40138 15.8112 7.85588 15.4378 8.50463 15.4378C9.89287 15.4378 10.2 16.5818 10.2 17.1081V18.2053ZM6 12.8185C7.98825 12.8185 9.6 11.2106 9.6 9.22722C9.6 7.24381 7.98825 5.63598 6 5.63598C4.01175 5.63598 2.4 7.24381 2.4 9.22722C2.4 11.2106 4.01175 12.8185 6 12.8185ZM6 7.4316C6.99263 7.4316 7.8 8.23701 7.8 9.22722C7.8 10.2174 6.99263 11.0228 6 11.0228C5.00738 11.0228 4.2 10.2174 4.2 9.22722C4.2 8.23701 5.00738 7.4316 6 7.4316ZM22.2 0.847656H7.8C6.80738 0.847656 6 1.68 6 2.70276V4.4389C6.36338 4.4389 7.21013 4.55599 7.8 4.79503V2.64328H22.2V14.6141H20.4V12.8185C20.4 12.1574 19.8626 11.6214 19.2 11.6214H14.4C13.7374 11.6214 13.2 12.1574 13.2 12.8185V16.4097H22.2C23.1926 16.4097 24 15.5774 24 14.5546V2.70276C24 1.68 23.1926 0.847656 22.2 0.847656ZM18.6 14.6141H15V13.417H18.6V14.6141Z" fill="#061A40"/>
</svg>
