<svg width="32" height="32" viewBox="0 0 32 32" fill="none" xmlns="http://www.w3.org/2000/svg">
<g clip-path="url(#clip0_664_1374)">
<path d="M16 24.9995C15.8684 25.0003 15.7379 24.9751 15.6161 24.9253C15.4943 24.8755 15.3834 24.8022 15.29 24.7095L7.51999 16.9295C6.54536 15.9447 5.99866 14.6151 5.99866 13.2295C5.99866 11.844 6.54536 10.5144 7.51999 9.52953C8.50226 8.55004 9.83283 8 11.22 8C12.6072 8 13.9377 8.55004 14.92 9.52953L16 10.6095L17.08 9.52953C18.0623 8.55004 19.3928 8 20.78 8C22.1672 8 23.4977 8.55004 24.48 9.52953C25.4546 10.5144 26.0013 11.844 26.0013 13.2295C26.0013 14.6151 25.4546 15.9447 24.48 16.9295L16.71 24.7095C16.6166 24.8022 16.5057 24.8755 16.3839 24.9253C16.2621 24.9751 16.1316 25.0003 16 24.9995ZM11.22 9.99953C10.7967 9.99761 10.3772 10.0797 9.9858 10.2411C9.59443 10.4024 9.23897 10.6398 8.93999 10.9395C8.33605 11.5466 7.99703 12.3682 7.99703 13.2245C7.99703 14.0809 8.33605 14.9024 8.93999 15.5095L16 22.5795L23.06 15.5095C23.6639 14.9024 24.003 14.0809 24.003 13.2245C24.003 12.3682 23.6639 11.5466 23.06 10.9395C22.4437 10.3572 21.6279 10.0328 20.78 10.0328C19.9321 10.0328 19.1163 10.3572 18.5 10.9395L16.71 12.7395C16.617 12.8333 16.5064 12.9077 16.3846 12.9584C16.2627 13.0092 16.132 13.0353 16 13.0353C15.868 13.0353 15.7373 13.0092 15.6154 12.9584C15.4936 12.9077 15.383 12.8333 15.29 12.7395L13.5 10.9395C13.201 10.6398 12.8456 10.4024 12.4542 10.2411C12.0628 10.0797 11.6433 9.99761 11.22 9.99953Z" fill="#1786FF"/>
</g>
<defs>
<clipPath id="clip0_664_1374">
<rect width="24" height="24" fill="white" transform="translate(4 4)"/>
</clipPath>
</defs>
</svg>
