<svg width="32" height="32" viewBox="0 0 32 32" fill="none" xmlns="http://www.w3.org/2000/svg">
<g clip-path="url(#clip0_664_1381)">
<path d="M22 19.0005C21.2144 19.0011 20.4604 19.3099 19.9 19.8605L12 16.3405V16.0005V15.6705L19.9 12.1405C20.3948 12.6255 21.0423 12.9243 21.7324 12.9861C22.4225 13.0479 23.1128 12.8689 23.6859 12.4795C24.259 12.0902 24.6797 11.5144 24.8765 10.8501C25.0733 10.1857 25.034 9.47373 24.7654 8.83504C24.4968 8.19634 24.0154 7.67031 23.4029 7.34629C22.7905 7.02227 22.0848 6.92024 21.4056 7.05753C20.7265 7.19481 20.1158 7.56295 19.6773 8.09942C19.2388 8.63588 18.9995 9.3076 19 10.0005V10.3405L11.1 13.8605C10.6784 13.4462 10.1438 13.1658 9.5633 13.0543C8.98282 12.9428 8.38235 13.0053 7.83726 13.2339C7.29218 13.4626 6.82677 13.8471 6.49947 14.3393C6.17217 14.8315 5.99756 15.4094 5.99756 16.0005C5.99756 16.5916 6.17217 17.1695 6.49947 17.6617C6.82677 18.1539 7.29218 18.5384 7.83726 18.767C8.38235 18.9956 8.98282 19.0581 9.5633 18.9467C10.1438 18.8352 10.6784 18.5547 11.1 18.1405L19 21.6705V22.0005C19 22.5938 19.176 23.1738 19.5056 23.6672C19.8353 24.1605 20.3038 24.5451 20.852 24.7721C21.4002 24.9992 22.0034 25.0586 22.5853 24.9428C23.1672 24.8271 23.7018 24.5414 24.1214 24.1218C24.5409 23.7022 24.8266 23.1677 24.9424 22.5858C25.0581 22.0038 24.9987 21.4006 24.7717 20.8524C24.5446 20.3043 24.1601 19.8357 23.6667 19.5061C23.1734 19.1764 22.5934 19.0005 22 19.0005ZM22 9.00048C22.1978 9.00048 22.3912 9.05913 22.5556 9.16901C22.7201 9.27889 22.8482 9.43507 22.9239 9.6178C22.9996 9.80052 23.0194 10.0016 22.9808 10.1956C22.9422 10.3896 22.847 10.5677 22.7071 10.7076C22.5673 10.8474 22.3891 10.9427 22.1951 10.9813C22.0011 11.0199 21.8001 11 21.6174 10.9244C21.4346 10.8487 21.2784 10.7205 21.1686 10.5561C21.0587 10.3916 21 10.1983 21 10.0005C21 9.73526 21.1054 9.48091 21.2929 9.29337C21.4805 9.10584 21.7348 9.00048 22 9.00048ZM9.00003 17.0005C8.80225 17.0005 8.60891 16.9418 8.44446 16.832C8.28001 16.7221 8.15184 16.5659 8.07615 16.3832C8.00047 16.2004 7.98066 15.9994 8.01925 15.8054C8.05783 15.6114 8.15307 15.4332 8.29293 15.2934C8.43278 15.1535 8.61096 15.0583 8.80494 15.0197C8.99892 14.9811 9.19999 15.0009 9.38272 15.0766C9.56544 15.1523 9.72162 15.2805 9.8315 15.4449C9.94138 15.6094 10 15.8027 10 16.0005C10 16.2657 9.89468 16.5201 9.70714 16.7076C9.5196 16.8951 9.26525 17.0005 9.00003 17.0005ZM22 23.0005C21.8023 23.0005 21.6089 22.9418 21.4445 22.832C21.28 22.7221 21.1518 22.5659 21.0762 22.3832C21.0005 22.2004 20.9807 21.9994 21.0192 21.8054C21.0578 21.6114 21.1531 21.4332 21.2929 21.2934C21.4328 21.1535 21.611 21.0583 21.8049 21.0197C21.9989 20.9811 22.2 21.0009 22.3827 21.0766C22.5654 21.1523 22.7216 21.2805 22.8315 21.4449C22.9414 21.6094 23 21.8027 23 22.0005C23 22.2657 22.8947 22.5201 22.7071 22.7076C22.5196 22.8951 22.2653 23.0005 22 23.0005Z" fill="#1786FF"/>
</g>
<defs>
<clipPath id="clip0_664_1381">
<rect width="24" height="24" fill="white" transform="translate(4 4)"/>
</clipPath>
</defs>
</svg>
