<svg width="32" height="32" viewBox="0 0 32 32" fill="none" xmlns="http://www.w3.org/2000/svg">
<g clip-path="url(#clip0_664_1395)">
<path d="M26.56 20.2997L18.89 7.57969C18.5798 7.09451 18.1525 6.69522 17.6475 6.41863C17.1424 6.14205 16.5758 5.99707 16 5.99707C15.4241 5.99707 14.8576 6.14205 14.3525 6.41863C13.8474 6.69522 13.4201 7.09451 13.11 7.57969L5.43998 20.2997C5.16903 20.7513 5.02177 21.2664 5.01299 21.793C5.00421 22.3196 5.13423 22.8393 5.38998 23.2997C5.68566 23.818 6.11364 24.2484 6.63018 24.5471C7.14672 24.8458 7.7333 25.002 8.32998 24.9997H23.67C24.2627 25.006 24.8467 24.8559 25.3629 24.5644C25.879 24.273 26.3092 23.8505 26.61 23.3397C26.8732 22.8745 27.0074 22.3474 26.9986 21.8129C26.9898 21.2784 26.8384 20.756 26.56 20.2997ZM24.86 22.3497C24.7398 22.5563 24.5654 22.7261 24.3556 22.8406C24.1459 22.9552 23.9088 23.0102 23.67 22.9997H8.32998C8.0912 23.0102 7.85409 22.9552 7.64434 22.8406C7.43458 22.7261 7.26016 22.5563 7.13998 22.3497C7.05221 22.1977 7.006 22.0252 7.006 21.8497C7.006 21.6742 7.05221 21.5017 7.13998 21.3497L14.82 8.61969C14.958 8.4374 15.1363 8.28956 15.3411 8.18777C15.5458 8.08598 15.7713 8.033 16 8.033C16.2286 8.033 16.4541 8.08598 16.6589 8.18777C16.8636 8.28956 17.042 8.4374 17.18 8.61969L24.85 21.3397C24.9411 21.492 24.9901 21.6658 24.9919 21.8433C24.9936 22.0208 24.9481 22.1956 24.86 22.3497Z" fill="#1786FF"/>
<path d="M16 21C16.5523 21 17 20.5523 17 20C17 19.4477 16.5523 19 16 19C15.4477 19 15 19.4477 15 20C15 20.5523 15.4477 21 16 21Z" fill="#1786FF"/>
<path d="M16 12C15.7348 12 15.4804 12.1054 15.2929 12.2929C15.1054 12.4804 15 12.7348 15 13V17C15 17.2652 15.1054 17.5196 15.2929 17.7071C15.4804 17.8946 15.7348 18 16 18C16.2652 18 16.5196 17.8946 16.7071 17.7071C16.8946 17.5196 17 17.2652 17 17V13C17 12.7348 16.8946 12.4804 16.7071 12.2929C16.5196 12.1054 16.2652 12 16 12Z" fill="#1786FF"/>
</g>
<defs>
<clipPath id="clip0_664_1395">
<rect width="24" height="24" fill="white" transform="translate(4 4)"/>
</clipPath>
</defs>
</svg>
