<svg width="32" height="32" viewBox="0 0 32 32" fill="none" xmlns="http://www.w3.org/2000/svg">
<g clip-path="url(#clip0_664_1402)">
<path d="M23.74 12.3302L18.3 6.33018C18.2065 6.22659 18.0924 6.14371 17.9649 6.08688C17.8375 6.03004 17.6995 6.00051 17.56 6.00018H10.56C10.2277 5.99622 9.89797 6.05774 9.5895 6.18124C9.28103 6.30473 8.9999 6.48778 8.76218 6.71993C8.52446 6.95209 8.33479 7.22879 8.20402 7.53425C8.07324 7.8397 8.00392 8.16793 8 8.50018V23.5002C8.00392 23.8324 8.07324 24.1607 8.20402 24.4661C8.33479 24.7716 8.52446 25.0483 8.76218 25.2804C8.9999 25.5126 9.28103 25.6956 9.5895 25.8191C9.89797 25.9426 10.2277 26.0041 10.56 26.0002H21.44C21.7723 26.0041 22.102 25.9426 22.4105 25.8191C22.719 25.6956 23.0001 25.5126 23.2378 25.2804C23.4755 25.0483 23.6652 24.7716 23.796 24.4661C23.9268 24.1607 23.9961 23.8324 24 23.5002V13.0002C23.9994 12.7523 23.9067 12.5136 23.74 12.3302ZM21.65 13.0002H17.71C17.5038 12.9799 17.3139 12.8794 17.1811 12.7204C17.0483 12.5614 16.9833 12.3567 17 12.1502V8.00018H17.11L21.65 13.0002ZM21.44 24.0002H10.56C10.4904 24.0042 10.4206 23.9945 10.3548 23.9715C10.2889 23.9486 10.2282 23.9129 10.1762 23.8664C10.1242 23.82 10.0818 23.7637 10.0516 23.7009C10.0214 23.638 10.0038 23.5698 10 23.5002V8.50018C10.0038 8.43054 10.0214 8.36234 10.0516 8.2995C10.0818 8.23665 10.1242 8.18039 10.1762 8.13394C10.2282 8.08749 10.2889 8.05176 10.3548 8.02881C10.4206 8.00586 10.4904 7.99613 10.56 8.00018H15V12.1502C14.9839 12.8868 15.2598 13.5999 15.7675 14.1339C16.2752 14.6678 16.9735 14.9792 17.71 15.0002H22V23.5002C21.9962 23.5698 21.9786 23.638 21.9484 23.7009C21.9182 23.7637 21.8758 23.82 21.8238 23.8664C21.7718 23.9129 21.7111 23.9486 21.6452 23.9715C21.5794 23.9945 21.5096 24.0042 21.44 24.0002Z" fill="#1786FF"/>
</g>
<defs>
<clipPath id="clip0_664_1402">
<rect width="24" height="24" fill="white" transform="translate(4 4)"/>
</clipPath>
</defs>
</svg>
