<svg width="22" height="22" viewBox="0 0 22 22" fill="none" xmlns="http://www.w3.org/2000/svg">
<path d="M15.5 10.8C14.7654 10.8 14.175 11.4043 14.175 12.1429C14.175 12.8814 14.7654 13.4857 15.5 13.4857C16.2346 13.4857 16.825 12.8814 16.825 12.1429C16.825 11.4043 16.2346 10.8 15.5 10.8ZM18.3125 5.08571H17.95V4.71429C17.95 3.66002 17.1079 2.8 16.0625 2.8H5.375C3.3976 2.8 1.8 4.42752 1.8 6.42857V15.5714C1.8 17.5725 3.3976 19.2 5.375 19.2H17.75C19.1062 19.2 20.2 18.0843 20.2 16.7143V7C20.2 5.94574 19.3579 5.08571 18.3125 5.08571ZM18.675 16.7143C18.675 17.2368 18.2567 17.6571 17.75 17.6571H5.375C4.24775 17.6571 3.325 16.7243 3.325 15.5714V6.42857C3.325 5.27569 4.24775 4.34286 5.375 4.34286H16.0625C16.2592 4.34286 16.425 4.50676 16.425 4.71429V5.08571H5.9375C5.5133 5.08571 5.175 5.43395 5.175 5.85714C5.175 6.28033 5.5133 6.62857 5.9375 6.62857H18.3125C18.5092 6.62857 18.675 6.79248 18.675 7V16.7143Z" fill="#1786FF" stroke="#1786FF" stroke-width="0.4"/>
</svg>
