<svg width="24" height="24" viewBox="0 0 24 24" fill="none" xmlns="http://www.w3.org/2000/svg">
<path d="M11.516 2.01255C6.206 2.26255 2.017 6.65255 2.033 11.9296C2.03564 13.4828 2.40753 15.0133 3.118 16.3946L2.06 21.4956C2.0471 21.5593 2.05048 21.6253 2.06983 21.6875C2.08919 21.7496 2.1239 21.8058 2.17075 21.851C2.2176 21.8961 2.27508 21.9287 2.33787 21.9458C2.40067 21.9629 2.46675 21.9638 2.53 21.9486L7.564 20.7646C8.89729 21.4234 10.361 21.776 11.848 21.7966C17.275 21.8796 21.799 17.6016 21.968 12.2166C22.15 6.44155 17.351 1.73555 11.516 2.01155V2.01255ZM17.523 17.3796C16.7975 18.1025 15.9364 18.6751 14.9892 19.0646C14.042 19.4542 13.0272 19.6529 12.003 19.6496C10.798 19.6532 9.60869 19.3766 8.529 18.8416L7.828 18.4946L4.741 19.2206L5.391 16.0896L5.045 15.4176C4.4841 14.3303 4.19324 13.124 4.197 11.9006C4.197 9.83055 5.009 7.88355 6.483 6.42055C7.9522 4.96625 9.93576 4.15019 12.003 4.14955C14.089 4.14955 16.049 4.95555 17.523 6.41955C18.2492 7.13519 18.8255 7.9884 19.2182 8.92932C19.6109 9.87023 19.8121 10.88 19.81 11.8996C19.81 13.9516 18.985 15.9296 17.523 17.3806V17.3796Z" fill="#FFAF4E"/>
<path d="M16.842 14.047L14.911 13.497C14.7864 13.4612 14.6545 13.4596 14.529 13.4923C14.4036 13.525 14.2893 13.5909 14.198 13.683L13.726 14.161C13.6284 14.2599 13.5037 14.3278 13.3676 14.3563C13.2316 14.3847 13.0901 14.3724 12.961 14.321C12.048 13.954 10.126 12.2579 9.63502 11.4089C9.56619 11.289 9.53475 11.1513 9.54472 11.0134C9.5547 10.8755 9.60564 10.7437 9.69102 10.635L10.103 10.1049C10.1823 10.0034 10.2325 9.88219 10.2482 9.75429C10.2639 9.6264 10.2445 9.49665 10.192 9.37895L9.38002 7.55495C9.33409 7.453 9.26514 7.36309 9.1786 7.2923C9.09205 7.2215 8.99026 7.17174 8.88124 7.14693C8.77221 7.12212 8.65891 7.12293 8.55025 7.14931C8.44159 7.17569 8.34053 7.22691 8.25502 7.29895C7.71602 7.75195 7.07602 8.43895 6.99902 9.20195C6.86202 10.545 7.44202 12.238 9.63602 14.272C12.171 16.621 14.202 16.932 15.523 16.613C16.273 16.433 16.873 15.7099 17.25 15.1189C17.3103 15.0251 17.3477 14.9184 17.3593 14.8074C17.3708 14.6964 17.3562 14.5843 17.3165 14.48C17.2768 14.3757 17.2132 14.2822 17.1308 14.207C17.0484 14.1318 16.9495 14.077 16.842 14.047Z" fill="#FFAF4E"/>
</svg>
