<svg width="25" height="24" viewBox="0 0 25 24" fill="none" xmlns="http://www.w3.org/2000/svg">
<g clip-path="url(#clip0_17_2067)">
<path d="M15.7998 16H9.7998C9.53459 16 9.28023 16.1054 9.0927 16.2929C8.90516 16.4804 8.7998 16.7348 8.7998 17C8.7998 17.2652 8.90516 17.5196 9.0927 17.7071C9.28023 17.8946 9.53459 18 9.7998 18H15.7998C16.065 18 16.3194 17.8946 16.5069 17.7071C16.6944 17.5196 16.7998 17.2652 16.7998 17C16.7998 16.7348 16.6944 16.4804 16.5069 16.2929C16.3194 16.1054 16.065 16 15.7998 16Z" fill="#A0B1C4"/>
<path d="M9.7998 14H12.7998C13.065 14 13.3194 13.8946 13.5069 13.7071C13.6944 13.5196 13.7998 13.2652 13.7998 13C13.7998 12.7348 13.6944 12.4804 13.5069 12.2929C13.3194 12.1054 13.065 12 12.7998 12H9.7998C9.53459 12 9.28023 12.1054 9.0927 12.2929C8.90516 12.4804 8.7998 12.7348 8.7998 13C8.7998 13.2652 8.90516 13.5196 9.0927 13.7071C9.28023 13.8946 9.53459 14 9.7998 14Z" fill="#A0B1C4"/>
<path d="M20.5398 8.33018L15.0998 2.33018C15.0063 2.22659 14.8922 2.14371 14.7647 2.08688C14.6373 2.03004 14.4993 2.00051 14.3598 2.00018H7.3598C7.02755 1.99622 6.69778 2.05774 6.38931 2.18124C6.08083 2.30473 5.79971 2.48778 5.56199 2.71993C5.32426 2.95209 5.1346 3.22879 5.00382 3.53425C4.87305 3.8397 4.80372 4.16793 4.7998 4.50018V19.5002C4.80372 19.8324 4.87305 20.1607 5.00382 20.4661C5.1346 20.7716 5.32426 21.0483 5.56199 21.2804C5.79971 21.5126 6.08083 21.6956 6.38931 21.8191C6.69778 21.9426 7.02755 22.0041 7.3598 22.0002H18.2398C18.5721 22.0041 18.9018 21.9426 19.2103 21.8191C19.5188 21.6956 19.7999 21.5126 20.0376 21.2804C20.2753 21.0483 20.465 20.7716 20.5958 20.4661C20.7266 20.1607 20.7959 19.8324 20.7998 19.5002V9.00018C20.7992 8.75234 20.7065 8.51358 20.5398 8.33018ZM14.7998 5.00018L17.5398 8.00018H15.5398C15.4351 7.99386 15.3327 7.96674 15.2385 7.92041C15.1444 7.87408 15.0605 7.80947 14.9916 7.73034C14.9227 7.65122 14.8703 7.55916 14.8373 7.45955C14.8044 7.35994 14.7916 7.25477 14.7998 7.15018V5.00018ZM18.2398 20.0002H7.3598C7.29018 20.0042 7.22044 19.9945 7.15458 19.9715C7.08872 19.9486 7.02804 19.9129 6.97602 19.8664C6.92399 19.82 6.88165 19.7637 6.85141 19.7009C6.82117 19.638 6.80363 19.5698 6.7998 19.5002V4.50018C6.80363 4.43054 6.82117 4.36234 6.85141 4.2995C6.88165 4.23665 6.92399 4.18039 6.97602 4.13394C7.02804 4.08749 7.08872 4.05176 7.15458 4.02881C7.22044 4.00586 7.29018 3.99613 7.3598 4.00018H12.7998V7.15018C12.7837 7.8868 13.0596 8.59991 13.5673 9.13385C14.075 9.6678 14.7733 9.97923 15.5098 10.0002H18.7998V19.5002C18.796 19.5698 18.7784 19.638 18.7482 19.7009C18.718 19.7637 18.6756 19.82 18.6236 19.8664C18.5716 19.9129 18.5109 19.9486 18.445 19.9715C18.3792 19.9945 18.3094 20.0042 18.2398 20.0002Z" fill="#A0B1C4"/>
</g>
<defs>
<clipPath id="clip0_17_2067">
<rect width="24" height="24" fill="white" transform="translate(0.799805)"/>
</clipPath>
</defs>
</svg>
