<svg width="19" height="18" viewBox="0 0 19 18" fill="none" xmlns="http://www.w3.org/2000/svg">
<path d="M2.03555 7.65257L2.03588 7.65224L8.9132 0.824396C8.91345 0.824144 8.91371 0.823891 8.91397 0.82364C8.96118 0.777547 9.02568 0.75056 9.09411 0.75H10.2785C10.347 0.75056 10.4115 0.777562 10.4587 0.82368C10.4589 0.823919 10.4592 0.824157 10.4594 0.824397L17.3367 7.65224L17.3371 7.65257C17.7626 8.07455 18.001 8.64588 18.0015 9.24067V17C18.0015 17.0646 17.9758 17.1276 17.9281 17.1749C17.8803 17.2224 17.8143 17.25 17.7443 17.25H13.7153C13.6453 17.25 13.5793 17.2224 13.5315 17.1749C13.4838 17.1276 13.4581 17.0645 13.4581 17V11.5C13.4581 11.1667 13.3247 10.8482 13.089 10.6142C12.8534 10.3804 12.5352 10.25 12.2044 10.25H7.1682C6.83746 10.25 6.51918 10.3804 6.28367 10.6142C6.04798 10.8482 5.91457 11.1667 5.91457 11.5V17C5.91457 17.0646 5.8888 17.1276 5.84115 17.1749C5.79331 17.2224 5.72729 17.25 5.65733 17.25H1.62834C1.55837 17.25 1.49235 17.2224 1.44452 17.1749C1.39687 17.1276 1.37109 17.0646 1.37109 17V9.24035C1.3717 8.64568 1.61006 8.07447 2.03555 7.65257Z" stroke="#A0B1C4" stroke-width="1.5"/>
</svg>
