<svg width="18" height="17" viewBox="0 0 18 17" fill="none" xmlns="http://www.w3.org/2000/svg">
<path d="M17.6203 1.22113C17.5041 1.12715 17.3684 1.0604 17.223 1.02579C17.0776 0.991183 16.9264 0.98959 16.7803 1.02113L9.0003 2.77113L1.2203 1.00113C1.07193 0.96762 0.917862 0.9684 0.769833 1.00341C0.621805 1.03842 0.483714 1.10674 0.366072 1.20317C0.248429 1.2996 0.154336 1.42159 0.0909517 1.55987C0.0275679 1.69815 -0.00343525 1.84906 0.000301881 2.00113V14.2011C-0.00534775 14.4323 0.0692867 14.6583 0.211501 14.8406C0.353716 15.0229 0.55472 15.1503 0.780302 15.2011L8.7803 17.0011H9.2203L17.2203 15.2011C17.4459 15.1503 17.6469 15.0229 17.7891 14.8406C17.9313 14.6583 18.006 14.4323 18.0003 14.2011V2.00113C17.9996 1.85093 17.9651 1.70281 17.8993 1.56777C17.8335 1.43274 17.7382 1.31426 17.6203 1.22113ZM2.0003 3.25113L8.0003 4.60113V14.7511L2.0003 13.4011V3.25113ZM16.0003 13.4011L10.0003 14.7511V4.60113L16.0003 3.25113V13.4011Z" fill="#A0B1C4"/>
</svg>
