<svg width="358" height="373" viewBox="0 0 358 373" fill="none" xmlns="http://www.w3.org/2000/svg">
<path d="M168.256 248.364C170.429 247.337 174.249 243.189 174.8 241.697C178.461 231.769 186.523 213.623 182.459 203.2C181.764 201.42 173.109 202.359 171.434 201.061C165.769 200.321 163.759 200.415 158.721 197.066C143.846 187.179 159.867 154.394 128.979 154.685C106.355 154.899 91.2933 167.59 83.1842 134.983C75.0751 102.377 30.9843 52.4453 4.50634 85.5869C-10.689 104.607 17.7041 125.379 14.2323 148.6C10.9332 170.666 24.0551 183.708 47.9391 188.582C71.8243 193.456 63.8735 205.716 63.8499 225.679C63.8212 249.659 98.4449 242.705 114.156 238.13C126.808 234.446 161.509 233.601 168.256 248.364Z" fill="#DEE7FE"/>
<path d="M178.645 223.425C158.6 220.589 139.288 214.712 121.246 205.956C103.91 197.544 87.7208 186.466 73.1272 173.034C44.7982 146.958 22.9366 112.418 9.90625 73.1462L10.3301 73.0049C23.3369 112.205 45.1553 146.681 73.4294 172.705C87.9902 186.108 104.143 197.16 121.441 205.555C139.441 214.289 158.708 220.153 178.708 222.983L178.645 223.425Z" fill="#FCFDFE"/>
<path d="M62.676 235.62L62.4131 235.259C79.8728 222.529 112.485 211.784 135.11 211.306L135.12 211.752C112.571 212.229 80.073 222.936 62.676 235.62Z" fill="#FCFDFE"/>
<path d="M163.383 221.088C152.558 216.236 144.61 206.122 139.758 191.026C136.218 180.01 134.378 166.639 134.288 151.281L134.734 151.278C134.823 166.589 136.655 179.916 140.182 190.889C144.993 205.859 152.861 215.882 163.564 220.679L163.383 221.088Z" fill="#FCFDFE"/>
<path d="M69.2428 169.169C49.685 159.167 26.7508 162.216 10.9551 166.537L10.8374 166.107C26.709 161.765 49.7595 158.705 69.4456 168.773L69.2428 169.169Z" fill="#FCFDFE"/>
<path d="M37.0203 130.135C33.3196 121.011 31.8139 110.608 32.5452 99.2172C33.1796 89.3185 35.5643 78.6821 39.4416 68.459L39.8589 68.6173C28.3801 98.8928 33.4125 120.051 37.4349 129.968L37.0203 130.135Z" fill="#FCFDFE"/>
<path d="M114.706 275.617C126.79 273.84 138.863 271.786 150.914 269.454C151.11 269.632 155.071 243.363 142.594 229.587C117.92 202.9 134.54 178.948 139.28 164.756C146.792 144.757 142.841 123.102 122.486 122.782C99.9119 121.985 95.8187 84.6195 99.9106 50.629C103.074 34.0523 87.4336 13.9398 71.8262 9.343C55.8931 4.25043 39.9927 14.6736 35.1186 47.7158C27.742 85.9735 55.6615 109.044 65.9997 128.224C76.1718 147.053 52.5076 162.287 71.5554 178.97C87.5761 193.794 107.769 204.45 100.383 223.071C92.793 241.483 94.61 256.534 114.706 275.617Z" fill="#FFAF4E"/>
<path d="M130.89 277.177C130.741 275.474 118.547 219.609 99.4604 168.054C96.7055 159.328 93.7177 150.547 90.8293 142.056C83.0865 119.292 75.0807 95.7543 71.2753 72.2968C67.0173 46.0451 68.5361 22.3966 75.9192 0L76.343 0.139968C68.9822 22.4659 67.4686 46.0451 71.7161 72.2248C75.515 95.6444 83.5155 119.166 91.2532 141.912C94.1428 150.406 97.1293 159.19 99.8829 167.908C119.791 221.681 131.34 276.936 131.336 277.169L130.89 277.163L131.113 277.167L130.89 277.177Z" fill="#FCFDFE"/>
<path d="M76.8397 97.9299C63.3554 82.9479 47.0927 61.666 38.3556 50.2317C34.6209 45.3445 31.671 41.4842 31.3218 41.2501L31.4186 41.1062L31.3754 40.8289C31.6711 40.787 31.9588 41.1258 38.7101 49.9609C47.4432 61.3887 63.6981 82.6615 77.1719 97.6304L76.8397 97.9299Z" fill="#FCFDFE"/>
<path d="M72.7299 77.4137L72.2891 77.3417C74.42 64.2198 79.4393 52.4466 86.8014 43.2962C92.6461 36.0321 98.2161 32.5472 99.7073 31.8997C100.028 31.761 100.167 31.7414 100.282 31.8173L100.033 32.1888C100.087 32.2241 100.132 32.2202 100.135 32.2202C99.5778 32.279 94.0798 35.3427 88.0402 42.4982C82.5958 48.9473 75.5201 60.2405 72.7299 77.4137Z" fill="#FCFDFE"/>
<path d="M111.281 203.071C109.369 187.015 113.105 169.754 122.385 151.771C127.219 142.405 133.38 133.232 140.701 124.504C141.083 124.048 141.386 123.688 141.427 123.616L141.812 123.84C141.754 123.941 141.547 124.189 141.042 124.791C133.744 133.493 127.6 142.639 122.782 151.975C113.544 169.878 109.822 187.051 111.723 203.018L111.281 203.071Z" fill="#FCFDFE"/>
<path d="M105.833 186.257C91.5243 163.14 61.534 161.515 61.0186 161.515C61.0173 161.515 61.0146 161.515 61.0146 161.515L60.995 161.294L60.9231 161.506L60.77 161.286L60.9362 161.077C60.9414 161.076 60.9558 161.074 60.9806 161.074C62.3018 161.074 91.9926 163.051 106.211 186.022L105.833 186.257Z" fill="#FCFDFE"/>
<path d="M128.871 268.164C128.614 261.138 131.112 249.176 144.483 232.096C144.797 231.694 145.069 231.348 145.105 231.278L145.269 231.366L145.532 231.328C145.55 231.456 145.55 231.456 144.835 232.371C131.546 249.345 129.062 261.195 129.317 268.147L128.871 268.164Z" fill="#FCFDFE"/>
<path d="M125.803 255.068C124.294 249.862 118.33 239.649 95.3413 229.753C95.0064 229.609 94.7906 229.515 94.7134 229.476L94.9175 229.078C94.9907 229.116 95.1974 229.205 95.5179 229.342C118.676 239.312 124.701 249.662 126.232 254.944L125.803 255.068Z" fill="#FCFDFE"/>
<path d="M328.637 256.265L46.6577 253.786V261.12C46.6577 263.111 47.8874 264.802 49.5526 265.104L129.287 279.545C130.233 279.717 131.193 279.763 132.148 279.681L325.572 263.217C327.299 263.07 328.636 261.372 328.636 259.328V256.265H328.637Z" fill="#BFC8D6"/>
<path d="M226.307 244.378L49.5739 257.793C46.4108 258.032 43.8403 255.483 43.8403 252.095V116.388C43.8403 113.001 46.4121 110.254 49.5739 110.254H226.308C228.914 110.254 231.02 112.737 231.02 115.798V238.474C231.019 241.538 228.913 244.18 226.307 244.378Z" fill="#BFC8D6"/>
<path d="M229.125 244.378L52.3913 257.793C49.2282 258.032 46.6577 255.483 46.6577 252.095V116.388C46.6577 113.001 49.2295 110.254 52.3913 110.254H229.125C231.731 110.254 233.837 112.737 233.837 115.798V238.474C233.837 241.538 231.73 244.18 229.125 244.378Z" fill="white"/>
<path d="M223.62 235.728L59.0105 247.381C56.4374 247.563 54.3457 245.47 54.3457 242.705V123.892C54.3457 121.127 56.4374 118.876 59.0105 118.865L223.62 118.134C225.77 118.125 227.508 120.159 227.508 122.677V230.893C227.508 233.412 225.77 235.576 223.62 235.728Z" fill="#D8DEE8"/>
<path d="M146.999 113.966C146.999 115.227 146.09 116.253 144.966 116.256C143.841 116.26 142.93 115.238 142.93 113.974C142.93 112.71 143.843 111.685 144.966 111.685C146.09 111.683 146.999 112.705 146.999 113.966Z" fill="white"/>
<path opacity="0.48" d="M186.543 207.157C172.919 199.284 162.206 209.261 151.867 199.417C145.599 193.449 148.677 188.998 140.964 180.08C132.422 170.203 126.86 173.523 118.274 164.632C107.42 153.39 112.848 144.645 103.498 136.574C92.1549 126.783 79.9212 135.846 69.1238 126.456C64.4669 122.406 61.9108 116.518 60.5765 110.256H50.0106C48.1596 110.256 46.6553 111.867 46.6553 113.856V254.529C46.6553 256.517 48.1583 258.014 50.0106 257.872L230.132 244.14C231.016 244.073 231.8 243.518 232.302 242.714C219.116 242.197 211.016 237.45 205.838 232.542C195.711 222.939 197.468 213.47 186.543 207.157Z" fill="white"/>
<path d="M236.169 243.771L46.6577 257.892L129.289 272.858C130.235 273.029 131.195 273.075 132.15 272.994L328.637 256.267L239.184 243.867C238.183 243.728 237.175 243.696 236.169 243.771Z" fill="url(#paint0_linear_2_16046)"/>
<path d="M74.312 258.244L232.086 246.312L280.916 253.027L124.5 265.782L74.312 258.244Z" fill="#D8DEE8"/>
<g opacity="0.75">
<path opacity="0.75" d="M87.9308 128.194L69.8042 128.257V122.392H87.9308V128.194Z" fill="white"/>
<path opacity="0.75" d="M182.904 127.862L99.4438 128.154V122.392H182.904V127.862Z" fill="white"/>
<path opacity="0.75" d="M116.94 137.83L99.4438 137.996V132.234L116.94 132.129V137.83Z" fill="white"/>
<path opacity="0.75" d="M208.721 136.964L128.059 137.727V132.064L208.721 131.584V136.964Z" fill="white"/>
<path opacity="0.75" d="M116.94 147.571L99.4438 147.84V142.078L116.94 141.87V147.571Z" fill="white"/>
<path opacity="0.75" d="M208.721 146.157L128.059 147.401V141.738L208.721 140.776V146.157Z" fill="white"/>
<path opacity="0.75" d="M87.9308 157.93L69.8042 158.317V152.451L87.9308 152.127V157.93Z" fill="white"/>
<path opacity="0.75" d="M182.904 155.9L99.4438 157.684V151.922L182.904 150.428V155.9Z" fill="white"/>
<path opacity="0.75" d="M116.94 167.048L99.4438 167.527V161.763L116.94 161.346V167.048Z" fill="white"/>
<path opacity="0.75" d="M208.721 164.538L128.059 166.743V161.082L208.721 159.157V164.538Z" fill="white"/>
<path opacity="0.75" d="M116.94 176.787L99.4438 177.369V171.607L116.94 171.085V176.787Z" fill="white"/>
<path opacity="0.75" d="M208.721 173.731L128.059 176.418V170.755L208.721 168.35V173.731Z" fill="white"/>
<path opacity="0.75" d="M116.94 186.525L99.4438 187.213V181.451L116.94 180.824V186.525Z" fill="white"/>
<path opacity="0.75" d="M208.721 182.921L128.059 186.09V180.427L208.721 177.541V182.921Z" fill="white"/>
<path opacity="0.75" d="M145.218 194.985L128.326 195.75V190.089L145.218 189.384V194.985Z" fill="white"/>
<path opacity="0.75" d="M221.038 191.556L155.952 194.501V188.936L221.038 186.219V191.556Z" fill="white"/>
<path opacity="0.75" d="M87.9308 207.489L69.8042 208.417V202.551L87.9308 201.687V207.489Z" fill="white"/>
<path opacity="0.75" d="M182.904 202.627L99.4438 206.901V201.138L182.904 197.156V202.627Z" fill="white"/>
<path opacity="0.75" d="M116.94 215.741L99.4438 216.741V210.979L116.94 210.041V215.741Z" fill="white"/>
<path opacity="0.75" d="M208.721 210.496L128.059 215.107V209.445L208.721 205.116V210.496Z" fill="white"/>
<path opacity="0.75" d="M116.94 225.482L99.4438 226.587V220.824L116.94 219.78V225.482Z" fill="white"/>
<path opacity="0.75" d="M208.721 219.688L128.059 224.779V219.118L208.721 214.307V219.688Z" fill="white"/>
<path opacity="0.75" d="M87.9308 237.225L69.8042 238.477V232.611L87.9308 231.422V237.225Z" fill="white"/>
<path opacity="0.75" d="M182.904 230.664L99.4438 236.431V230.668L182.904 225.192V230.664Z" fill="white"/>
</g>
<path d="M299.164 160.332C299.164 160.332 301.972 156.854 307.236 156.636C312.496 156.417 319.656 153.138 322.727 152.825C323.468 152.749 323.835 152.527 323.898 152.248C324.028 151.674 320.619 150.873 317.592 150.799C312.222 150.668 309.087 152.82 308.363 151.737C307.552 150.527 311.021 147.167 310.386 146.43C309.894 145.857 307.535 147.732 305.009 148.888C303.215 149.708 296.194 158.4 296.194 158.4L299.164 160.332Z" fill="url(#paint1_linear_2_16046)"/>
<path d="M302.996 158.962C302.566 179.836 292.447 198.796 276.241 208.131C275.572 208.517 274.886 208.89 274.193 209.244C244.586 224.36 214.917 198.782 211.347 195.599C210.422 194.779 206.005 190.734 201.396 184.023C196.203 176.475 190.77 165.542 189.833 152.055C189.451 146.534 188.286 129.704 197.012 124.601C205.995 119.349 220.29 129.535 226.096 133.671C250.654 151.169 251.244 172.649 264.751 174.831C270.802 175.808 280.418 173.062 294.864 153.496C297.577 155.319 300.285 157.141 302.996 158.962Z" fill="url(#paint2_linear_2_16046)"/>
<path opacity="0.3" d="M276.241 208.131C275.571 208.517 274.885 208.89 274.192 209.245C244.585 224.36 214.916 198.782 211.347 195.599C210.422 194.779 206.004 190.735 201.396 184.024C202.828 177.537 204.777 168.937 204.777 168.937C204.777 168.937 217.483 167.358 223.511 182.417C225.689 187.858 228.32 193.158 232.771 196.976C237.262 200.832 240.738 200.245 246.399 199.362C251.608 198.552 257.051 202.525 261.565 204.439C266.236 206.42 271.081 208.462 276.241 208.131Z" fill="url(#paint3_linear_2_16046)"/>
<path d="M77.4019 128.052C95.4004 121.862 122.916 115.051 156.654 116.756C176.243 117.747 195.085 120.039 208.462 124.023C210.273 134.5 210.112 146.305 211.922 156.785C212.338 167.282 212.473 181.497 211.332 198.278C210.192 215.056 209.074 215.296 206.462 238.964C202.203 277.541 203.984 287.661 196.473 292.187C191.591 295.13 189.825 291.461 164.945 288.532C148.291 286.571 139.8 285.65 131.382 288.476C119.928 292.32 116.096 299.006 111.377 296.739C106.852 294.565 106.275 286.451 105.729 272.311C104.887 250.5 104.938 235.686 104.861 230.381C104.504 206.043 98.5687 187.4 90.9711 163.537C86.2213 148.621 81.2216 136.542 77.4019 128.052Z" fill="url(#paint4_linear_2_16046)"/>
<path d="M154.419 92.584C154.152 98.7126 153.241 103.529 152.446 106.816C151.534 110.583 150.968 111.535 150.269 112.292C149.218 113.433 147.665 114.347 139.082 115.988C134.415 116.88 133.824 116.811 133.697 117.278C133.082 119.556 145.241 128.231 158.334 127.158C166.354 126.501 173.844 122.259 173.528 119.762C173.209 117.247 165.183 118.078 163.044 113.434C161.557 110.205 163.634 105.882 166.009 102.343C164.104 98.1095 156.321 96.8171 154.419 92.584Z" fill="url(#paint5_linear_2_16046)"/>
<path d="M170.232 98.332C173.059 96.3017 174.709 91.6474 173.427 87.9218C172.324 84.7169 169.399 83.3277 167.648 82.4944C162.576 80.0848 155.176 80.128 151.22 84.3886C148.877 86.9133 149.823 94.1185 149.923 95.39C150.039 96.8289 150.851 97.5837 151.423 98.8356C152.214 100.571 153.444 103.321 155.424 107.896C156.005 106.939 156.793 105.779 157.834 104.584C158.234 104.123 159.824 102.335 161.762 101.062C165.646 98.5099 167.553 100.256 170.232 98.332Z" fill="url(#paint6_linear_2_16046)"/>
<path d="M151.931 103.433C151.931 103.433 153.474 110.511 160.533 112.38C166.855 114.055 172.451 99.9583 169.494 95.5695C168.507 94.1043 166.005 92.7909 163.654 92.6915C162.266 92.6327 161.659 93.0343 159.395 92.893C157.306 92.7622 156.836 92.3593 156.092 92.6693C155.161 93.0591 154.125 94.4314 153.965 99.0478C153.189 97.41 151.93 96.4564 150.767 96.6094C150.581 96.6343 150.059 96.7913 149.673 97.1641C148.273 98.5154 149.035 101.103 151.931 103.433Z" fill="url(#paint7_linear_2_16046)"/>
<path d="M156.093 91.7121C156.316 92.0431 155.029 92.8908 154.429 94.5024C153.264 97.6301 155.116 102.483 158.167 103.871C159.971 104.693 160.864 103.699 164.06 104.402C166.039 104.838 167.547 105.628 168.475 106.193C168.311 110.002 166.268 113.164 163.501 114.017C160.524 114.934 157.784 112.841 156.639 111.965C155.874 111.379 153.417 109.509 152.83 106.392C152.219 103.145 154.232 101.991 153.11 99.557C152.544 98.3287 151.533 97.5386 151.01 95.354C150.869 94.7601 150.809 94.2578 150.78 93.9242C152.947 92.7076 155.77 91.232 156.093 91.7121Z" fill="url(#paint8_linear_2_16046)"/>
<path d="M165.806 106.724C165.806 106.724 164.234 106.997 161.969 106.083C161.859 106.038 161.725 106.03 161.691 106.087C161.564 106.296 162.712 107.816 164.206 107.879C165.267 107.924 166.332 107.226 166.279 106.94C166.258 106.818 166.035 106.757 165.806 106.724Z" fill="url(#paint9_linear_2_16046)"/>
<path opacity="0.3" d="M186.794 279.365C174.554 273.783 174.624 262.605 163.203 257.782C146.924 250.907 128.965 266.101 126.163 261.781C123.248 257.287 144.691 243.916 141.836 230.4C139.567 219.662 124.602 221.375 116.594 206.631C109.003 192.654 116.362 179.891 109.64 174.993C107.23 173.237 102.98 172.51 94.9272 176.106C100.542 194.37 104.57 210.473 104.861 230.383C104.938 235.687 104.887 250.503 105.73 272.312C106.277 286.452 106.852 294.566 111.377 296.74C116.098 299.007 119.928 292.322 131.382 288.477C139.802 285.651 148.291 286.572 164.945 288.533C189.826 291.462 191.591 295.13 196.474 292.188C199.655 290.272 201.168 287.339 202.18 281.676C197.186 282.157 191.886 281.686 186.794 279.365Z" fill="url(#paint10_linear_2_16046)"/>
<path d="M94.0065 230.266L99.9703 229.996C99.9703 229.996 106.507 224.4 109.484 224.791C112.462 225.182 116.917 227.383 117.46 227.839C118.003 228.296 115.83 230.788 113.656 230.516C111.483 230.244 106.635 231.397 105.769 233.373C104.903 235.347 101.142 236.498 100.504 235.324L92.4878 236.872L94.0065 230.266Z" fill="url(#paint11_linear_2_16046)"/>
<path d="M95.8122 228.123C96.2295 233.207 95.1647 236.643 93.3856 238.984C85.508 249.362 58.7777 244.72 42.9179 230.497C31.1931 219.981 24.9886 203.811 25.2175 189.394C25.6649 161.261 50.734 133.906 88.123 124.677C93.6682 141.936 100.553 155.572 106.103 172.847C83.0056 172.973 67.6573 194.518 69.7333 207.436C71.2821 217.06 82.0676 225.835 95.8122 228.123Z" fill="url(#paint12_linear_2_16046)"/>
<path d="M307.274 64.4228L319.083 88.3498C319.519 89.2367 320.366 89.8502 321.344 89.9928L347.749 93.8296C350.212 94.188 351.196 97.215 349.413 98.9522L330.306 117.576C329.599 118.265 329.276 119.26 329.443 120.234L333.953 146.532C334.375 148.986 331.799 150.856 329.596 149.697L305.979 137.28C305.104 136.82 304.059 136.82 303.183 137.28L279.566 149.697C277.363 150.856 274.788 148.984 275.209 146.532L279.719 120.234C279.887 119.26 279.564 118.265 278.856 117.576L259.749 98.9522C257.966 97.215 258.95 94.1867 261.413 93.8296L287.818 89.9928C288.797 89.8502 289.642 89.2367 290.08 88.3498L301.888 64.4228C302.989 62.1898 306.173 62.1898 307.274 64.4228Z" fill="url(#paint13_linear_2_16046)"/>
<path d="M308.446 64.4228L320.255 88.3498C320.692 89.2367 321.538 89.8502 322.516 89.9928L348.921 93.8296C351.384 94.188 352.368 97.215 350.586 98.9522L331.48 117.576C330.772 118.265 330.449 119.26 330.616 120.234L335.127 146.532C335.548 148.986 332.972 150.856 330.769 149.697L307.152 137.28C306.277 136.82 305.232 136.82 304.357 137.28L280.74 149.697C278.537 150.856 275.961 148.984 276.383 146.532L280.893 120.234C281.061 119.26 280.737 118.265 280.03 117.576L260.923 98.9522C259.14 97.215 260.124 94.1867 262.588 93.8296L288.993 89.9928C289.971 89.8502 290.817 89.2367 291.255 88.3498L303.063 64.4228C304.161 62.1898 307.343 62.1898 308.446 64.4228Z" fill="url(#paint14_linear_2_16046)"/>
<g opacity="0.3">
<path opacity="0.3" d="M324.355 131.491C315.293 122.873 305.084 123.353 300.962 113.394C296.344 102.234 306.177 94.4235 304.492 80.7326C304.084 77.4165 302.985 73.6294 300.546 69.5127L291.25 88.3472C290.813 89.2342 289.967 89.8477 288.988 89.9903L262.583 93.827C260.12 94.1855 259.136 97.2125 260.918 98.9497L280.025 117.574C280.732 118.264 281.056 119.259 280.888 120.232L276.378 146.529C275.956 148.983 278.532 150.854 280.735 149.695L304.352 137.278C305.228 136.818 306.273 136.818 307.148 137.278L330.765 149.695C332.047 150.369 333.454 150.017 334.325 149.122C331.983 140.542 328.159 135.109 324.355 131.491Z" fill="url(#paint15_linear_2_16046)"/>
</g>
<path d="M256.979 23.8997L265.094 40.343C265.395 40.9526 265.976 41.3751 266.648 41.4719L284.795 44.1091C286.487 44.355 287.164 46.4363 285.939 47.6293L272.808 60.4281C272.322 60.9029 272.099 61.5858 272.214 62.2556L275.315 80.3288C275.604 82.015 273.834 83.3008 272.319 82.5042L256.089 73.9725C255.487 73.656 254.769 73.656 254.167 73.9725L237.937 82.5055C236.423 83.3022 234.653 82.0163 234.943 80.3301L238.043 62.2569C238.158 61.5871 237.936 60.9043 237.449 60.4294L224.318 47.6306C223.093 46.4363 223.769 44.3563 225.463 44.1104L243.609 41.4732C244.282 41.3751 244.863 40.9539 245.163 40.3443L253.279 23.901C254.034 22.3652 256.221 22.3652 256.979 23.8997Z" fill="url(#paint16_linear_2_16046)"/>
<path d="M257.785 23.8997L265.901 40.343C266.202 40.9526 266.782 41.3751 267.455 41.4719L285.601 44.1091C287.294 44.355 287.97 46.4363 286.746 47.6293L273.615 60.4281C273.128 60.9029 272.906 61.5858 273.021 62.2556L276.121 80.3288C276.41 82.015 274.64 83.3008 273.127 82.5042L256.897 73.9712C256.295 73.6547 255.577 73.6547 254.975 73.9712L238.744 82.5055C237.229 83.3022 235.459 82.0163 235.75 80.3301L238.85 62.2569C238.965 61.5871 238.743 60.9043 238.256 60.4294L225.125 47.6306C223.899 46.4363 224.576 44.3563 226.268 44.1104L244.415 41.4732C245.087 41.3751 245.668 40.9539 245.969 40.3443L254.084 23.901C254.841 22.3652 257.029 22.3652 257.785 23.8997Z" fill="url(#paint17_linear_2_16046)"/>
<g opacity="0.3">
<path opacity="0.3" d="M268.719 69.9934C262.491 64.0715 255.475 64.4011 252.642 57.5569C249.468 49.8886 256.226 44.52 255.068 35.1106C254.788 32.8318 254.032 30.2286 252.357 27.4004L245.968 40.3444C245.667 40.954 245.086 41.3766 244.414 41.4734L226.267 44.1106C224.575 44.3565 223.898 46.4377 225.124 47.6308L238.255 60.4296C238.742 60.9045 238.964 61.5873 238.849 62.2571L235.749 80.3303C235.46 82.0165 237.229 83.3024 238.743 82.5058L254.973 73.9728C255.575 73.6562 256.293 73.6562 256.894 73.9728L273.124 82.5058C274.005 82.9688 274.971 82.7268 275.571 82.112C273.96 76.2136 271.333 72.4802 268.719 69.9934Z" fill="url(#paint18_linear_2_16046)"/>
</g>
<path d="M200.747 16.7263L206.325 28.0273C206.532 28.4459 206.931 28.7363 207.392 28.803L219.863 30.6148C221.027 30.7835 221.491 32.2133 220.649 33.0348L211.625 41.8308C211.291 42.1565 211.139 42.6261 211.217 43.0866L213.347 55.5073C213.546 56.6663 212.329 57.5493 211.289 57.0025L200.135 51.1381C199.721 50.921 199.228 50.921 198.815 51.1381L187.66 57.0025C186.619 57.5493 185.404 56.6663 185.603 55.5073L187.734 43.0866C187.812 42.6261 187.66 42.1565 187.326 41.8308L178.302 33.0348C177.46 32.2146 177.925 30.7849 179.088 30.6148L191.559 28.803C192.02 28.7363 192.421 28.4459 192.627 28.0273L198.204 16.7263C198.723 15.672 200.226 15.672 200.747 16.7263Z" fill="url(#paint19_linear_2_16046)"/>
<path d="M201.3 16.7263L206.877 28.0273C207.084 28.4459 207.483 28.7363 207.946 28.803L220.416 30.6148C221.581 30.7835 222.045 32.2133 221.202 33.0348L212.179 41.8308C211.844 42.1565 211.692 42.6261 211.771 43.0866L213.902 55.5073C214.101 56.6663 212.884 57.5493 211.844 57.0025L200.689 51.1381C200.276 50.921 199.783 50.921 199.369 51.1381L188.215 57.0025C187.174 57.5493 185.958 56.6663 186.157 55.5073L188.288 43.0866C188.367 42.6261 188.215 42.1565 187.88 41.8308L178.856 33.0348C178.014 32.2146 178.48 30.7849 179.642 30.6148L192.113 28.803C192.575 28.7363 192.975 28.4459 193.182 28.0273L198.759 16.7263C199.277 15.672 200.78 15.672 201.3 16.7263Z" fill="url(#paint20_linear_2_16046)"/>
<g opacity="0.3">
<path opacity="0.3" d="M208.816 48.4044C204.536 44.3348 199.714 44.5611 197.768 39.857C195.587 34.5865 200.231 30.8976 199.435 24.4301C199.243 22.8643 198.724 21.0748 197.571 19.1309L193.181 28.0262C192.975 28.4448 192.576 28.7352 192.112 28.802L179.642 30.6137C178.479 30.7825 178.013 32.2123 178.856 33.0338L187.879 41.8297C188.214 42.1554 188.366 42.6251 188.287 43.0855L186.157 55.5063C185.958 56.6653 187.174 57.5483 188.214 57.0015L199.369 51.1371C199.782 50.92 200.275 50.92 200.689 51.1371L211.843 57.0015C212.449 57.3194 213.113 57.1533 213.524 56.7308C212.419 52.6794 210.612 50.1129 208.816 48.4044Z" fill="url(#paint21_linear_2_16046)"/>
</g>
<path d="M75.807 350.521C74.9344 351.913 75.0705 352.566 75.2196 352.862C75.6592 353.73 77.0039 353.095 80.2638 353.83C80.6458 353.916 81.3744 354.093 82.3189 353.972C83.1287 353.869 84.1032 353.546 84.0849 353.33C84.0784 353.252 83.941 353.206 83.89 353.189C82.9952 352.898 77.4461 350.539 77.4461 350.539L75.807 350.521Z" fill="url(#paint22_linear_2_16046)"/>
<path d="M75.7056 347.252L75.8744 350.586C75.8744 350.586 77.1801 351.73 77.676 350.559C78.0332 349.716 78.2714 347.372 78.2714 347.372L75.7056 347.252Z" fill="url(#paint23_linear_2_16046)"/>
<path d="M92.1731 350.614L90.3941 354.247L88.4175 353.717L89.2495 350.268L92.1731 350.614Z" fill="url(#paint24_linear_2_16046)"/>
<path d="M89.5518 356.26C88.6988 355.004 87.8198 355.017 87.7269 354.206C87.6536 353.568 88.1154 352.843 88.7224 352.613C89.5753 352.29 90.4884 353.029 90.6951 353.196C92.0974 354.332 91.5284 355.819 92.8771 356.632C93.1492 356.795 93.5861 356.984 94.0165 357.481C94.1996 357.691 94.6522 358.215 94.5005 358.526C94.3252 358.887 93.4317 358.78 92.5827 358.679C91.5637 358.557 91.0535 358.497 90.5943 358.14C89.9612 357.644 90.2098 357.231 89.5518 356.26Z" fill="url(#paint25_linear_2_16046)"/>
<path d="M73.1488 267.655C72.7236 275.325 73.1344 281.953 73.8225 287.394C74.5629 293.246 75.1882 294.298 75.2392 298.308C75.3478 307.03 72.4555 308.037 71.1329 317.778C69.6717 328.532 71.8328 337.355 72.6896 340.723C73.4392 343.667 74.2816 346.065 74.9252 347.734C75.8435 348.68 77.3858 348.473 79.0093 348.281C80.409 338.533 81.9068 329.373 83.3078 319.625C86.4264 305.044 89.545 290.464 92.6623 275.883C86.1569 273.14 79.6529 270.398 73.1488 267.655Z" fill="#1A0F91"/>
<path opacity="0.1" d="M79.0107 348.281C80.4104 338.533 81.9082 329.374 83.3092 319.625C86.4278 305.045 89.5464 290.464 92.6637 275.883C86.1596 273.14 79.6556 270.398 73.1515 267.655C73.1227 268.163 73.1083 268.653 73.0874 269.153C81.7917 278.076 83.0933 284.681 82.6368 289.075C82.0835 294.404 78.9452 296.809 78.8733 304.596C78.8223 310.163 80.4051 311.277 79.9904 316.271C79.4567 322.702 76.397 326.089 74.7448 329.693C73.1476 333.176 72.2633 338.226 74.1745 345.669C74.4426 346.444 74.6977 347.138 74.9279 347.735C75.8449 348.679 77.3873 348.474 79.0107 348.281Z" fill="#F4F7FA"/>
<path d="M84.377 276.006C88.6049 284.713 90.7934 291.472 91.9407 295.628C92.6405 298.163 93.2475 300.795 93.1599 304.173C93.0526 308.31 91.9524 311.626 91.0642 313.734C89.8005 316.423 88.5984 319.584 87.7088 323.193C84.8257 334.897 86.7813 345.052 88.4806 350.941C89.6318 351.479 90.7843 352.018 91.9354 352.557C95.2503 345.251 99.4324 334.843 102.891 321.869C104.78 314.783 106.236 309.223 106.839 302.057C107.476 294.499 107.391 282.455 102.391 267.657C96.3858 270.44 90.3814 273.222 84.377 276.006Z" fill="#1A0F91"/>
<path d="M92.5456 210.806C99.9941 212.73 105.635 214.557 107.874 218.728C110.241 223.132 105.666 225.921 103.734 234.995C100.775 248.888 108.412 254.802 104.918 268.746C103.741 273.445 101.815 276.995 100.519 279.092C97.9116 280.882 93.8053 283.277 88.3884 284.683C80.5042 286.728 76.8546 284.857 66.4968 284.592C49.5552 284.157 46.6262 288.838 39.2575 285.2C31.8103 281.523 26.9192 272.849 28.8422 269.474C29.9947 267.453 32.9707 269.021 37.6093 266.808C43.5862 263.955 43.0053 259.337 47.954 255.827C55.0624 250.786 60.9869 256.963 67.0737 252.571C73.231 248.129 74.9081 236.224 73.0544 228.9C71.8444 224.116 72.2329 219.055 71.4441 214.185C71.3787 213.78 71.3539 213.141 71.66 212.445C72.8294 209.78 77.8932 209.669 81.7169 209.622C87.5485 209.547 91.9334 210.647 92.5456 210.806Z" fill="#FE7062"/>
<path opacity="0.3" d="M40.5838 279.95C43.047 278.589 42.1483 274.073 45.8006 272.019C49.19 270.112 51.457 273.161 56.3063 272.104C62.5265 270.748 62.6939 264.881 68.6616 263.498C72.9523 262.504 73.9923 265.277 80.0123 265.892C86.0219 266.507 94.118 264.677 99.6435 258.71C101.992 256.175 103.417 253.381 104.285 250.761C105.463 256.094 106.795 261.265 104.919 268.75C103.742 273.449 101.816 276.999 100.52 279.096C97.9129 280.886 93.8066 283.281 88.3896 284.687C80.5055 286.732 76.8558 284.861 66.498 284.596C49.5563 284.161 46.6274 288.842 39.2586 285.204C34.4996 282.853 30.7937 278.466 29.2344 274.722C35.4951 280.119 38.7955 280.939 40.5838 279.95Z" fill="url(#paint26_linear_2_16046)"/>
<path d="M97.9955 198.093C97.9955 198.093 99.7536 202.174 99.6582 204.928C99.5627 207.682 96.4833 207.225 96.4833 207.225L96.4558 208.965C96.4323 210.45 97.2852 211.81 98.6326 212.437L99.8177 212.988C99.8177 212.988 91.7034 214.034 87.605 210.596L88.87 210.578C90.6608 210.552 92.1848 209.266 92.5131 207.505L92.6505 206.771C92.6491 206.771 91.9755 198.107 97.9955 198.093Z" fill="url(#paint27_linear_2_16046)"/>
<path d="M106.125 242.642L118.257 221.717C118.407 221.46 118.708 221.329 118.998 221.397L135.971 225.363C136.424 225.469 136.639 225.99 136.393 226.383L122.316 248.892C122.146 249.163 121.811 249.279 121.51 249.171L106.593 243.784L106.125 242.642Z" fill="url(#paint28_linear_2_16046)"/>
<path d="M109.111 240.268L118.934 223.324C119.055 223.115 119.298 223.01 119.534 223.065L133.277 226.277C133.645 226.362 133.817 226.784 133.618 227.104L122.221 245.329C122.083 245.549 121.811 245.643 121.568 245.554L109.49 241.192L109.111 240.268Z" fill="url(#paint29_linear_2_16046)"/>
<path d="M121.83 223.52L122.61 222.16C122.718 221.972 122.937 221.875 123.149 221.923L130.218 223.513C130.546 223.588 130.707 223.959 130.537 224.248L129.67 225.727C129.558 225.916 129.336 226.011 129.123 225.958L122.142 224.25C121.821 224.171 121.665 223.806 121.83 223.52Z" fill="#D8DEE8"/>
<path d="M131.089 229.343C131.077 229.342 131.068 229.339 131.056 229.337L118.612 226.4C118.457 226.364 118.362 226.209 118.398 226.056C118.435 225.902 118.595 225.809 118.744 225.843L131.189 228.779C131.344 228.816 131.439 228.97 131.403 229.123C131.367 229.269 131.231 229.36 131.089 229.343Z" fill="white"/>
<path d="M130.306 230.551C130.295 230.55 130.283 230.547 130.271 230.545L117.903 227.491C117.748 227.453 117.656 227.299 117.694 227.145C117.731 226.991 117.885 226.897 118.04 226.935L130.408 229.989C130.563 230.027 130.656 230.181 130.618 230.335C130.584 230.477 130.448 230.568 130.306 230.551Z" fill="white"/>
<path d="M123.784 231.893C123.769 231.891 123.755 231.889 123.741 231.885L117.016 230.03C116.863 229.988 116.774 229.83 116.816 229.677C116.857 229.525 117.018 229.435 117.167 229.477L123.892 231.332C124.045 231.373 124.134 231.532 124.093 231.685C124.055 231.823 123.921 231.91 123.784 231.893Z" fill="white"/>
<path d="M125.758 243.386C125.758 243.386 128.76 241.773 129.227 240.463C129.694 239.154 129.877 236.616 129.877 236.616L127.872 240.007C127.872 240.007 127.106 239.698 126.888 238.488C126.671 237.279 125.983 238.293 126.123 239.205C126.261 240.117 125.758 243.386 125.758 243.386Z" fill="url(#paint30_linear_2_16046)"/>
<path d="M106.674 217.262C108.061 218.319 110.127 220.134 111.834 222.895C116.687 230.748 113.69 238.26 118.047 241.484C119.293 242.406 121.559 243.285 125.921 242.237L127.445 243.264C127.445 243.264 128.367 253.491 116.161 252.594C103.954 251.696 99.4731 235.936 99.4731 235.936L106.674 217.262Z" fill="url(#paint31_linear_2_16046)"/>
<path d="M96.4254 201.874C96.016 201.806 95.719 201.255 95.4247 201.387C95.1147 201.524 95.0846 202.29 95.2978 202.846C95.4731 203.301 95.7962 203.578 95.978 203.709C95.6235 204.122 95.1618 204.774 94.9185 205.655C94.3808 207.606 95.3017 209.287 95.6628 210.256C97.2888 214.624 93.6666 221.016 90.0169 224.092C87.0513 226.593 85.8635 225.39 84.0426 227.483C80.4989 231.556 84.4991 236.687 82.3682 242.388C79.1292 251.056 64.8941 252.535 64.3055 252.589C64.0726 252.61 63.9169 252.623 63.6762 252.641C57.3056 253.118 47.6516 253.843 41.3673 248.125C36.6658 243.849 34.9208 236.938 35.7907 231.05C36.0196 229.501 36.9811 223.63 42.1966 219.206C43.0247 218.504 47.925 214.357 54.0457 214.808C57.2873 215.048 57.8459 216.243 60.3824 215.742C63.8541 215.057 66.1983 212.146 67.653 210.341C70.3281 207.02 69.4216 206.189 71.2804 204.6C74.9223 201.488 78.6439 204.477 82.482 201.782C86.2651 199.126 84.4625 194.948 88.0887 192.679C91.8299 190.338 98.4936 191.815 99.6709 195.07C100.683 197.871 97.6799 202.083 96.4254 201.874Z" fill="url(#paint32_linear_2_16046)"/>
<path d="M160.491 34.328L164.773 43.0036C164.931 43.3254 165.238 43.5478 165.593 43.5988L175.167 44.9893C176.061 45.1188 176.418 46.2164 175.77 46.8469L168.842 53.5995C168.586 53.8494 168.468 54.2104 168.53 54.5636L170.165 64.0986C170.318 64.9882 169.384 65.6671 168.585 65.2472L160.022 60.7459C159.704 60.5784 159.326 60.5784 159.008 60.7459L150.445 65.2472C149.645 65.6671 148.711 64.9882 148.864 64.0986L150.5 54.5636C150.56 54.2104 150.443 53.8494 150.187 53.5995L143.259 46.8469C142.613 46.2164 142.97 45.1188 143.862 44.9893L153.436 43.5988C153.791 43.5478 154.098 43.3241 154.257 43.0036L158.538 34.328C158.937 33.5196 160.092 33.5196 160.491 34.328Z" fill="url(#paint33_linear_2_16046)"/>
<path d="M160.917 34.328L165.198 43.0036C165.356 43.3254 165.664 43.5478 166.018 43.5988L175.593 44.9893C176.486 45.1188 176.842 46.2164 176.196 46.8469L169.268 53.5995C169.011 53.8494 168.894 54.2104 168.955 54.5636L170.59 64.0986C170.743 64.9882 169.809 65.6671 169.01 65.2472L160.447 60.7459C160.13 60.5784 159.751 60.5784 159.433 60.7459L150.87 65.2472C150.071 65.6671 149.137 64.9882 149.29 64.0986L150.925 54.5636C150.985 54.2104 150.869 53.8494 150.612 53.5995L143.684 46.8469C143.038 46.2164 143.395 45.1188 144.287 44.9893L153.862 43.5988C154.216 43.5478 154.524 43.3241 154.682 43.0036L158.964 34.328C159.363 33.5196 160.518 33.5196 160.917 34.328Z" fill="url(#paint34_linear_2_16046)"/>
<g opacity="0.3">
<path opacity="0.3" d="M166.685 58.6462C163.399 55.5211 159.698 55.6964 158.203 52.0846C156.529 48.0386 160.095 45.2065 159.484 40.2421C159.336 39.0399 158.937 37.6664 158.053 36.1738L154.682 43.0036C154.523 43.3254 154.216 43.5478 153.861 43.5988L144.287 44.9893C143.394 45.1188 143.038 46.2163 143.684 46.8469L150.612 53.5994C150.868 53.8493 150.986 54.2103 150.925 54.5635L149.29 64.0985C149.136 64.988 150.07 65.6669 150.87 65.247L159.433 60.7458C159.751 60.5796 160.129 60.5796 160.447 60.7458L169.01 65.247C169.474 65.4917 169.984 65.3635 170.299 65.039C169.452 61.9283 168.065 59.9583 166.685 58.6462Z" fill="url(#paint35_linear_2_16046)"/>
</g>
<path d="M264.477 346.117C264.477 346.117 255.636 350.61 255.492 351.327C255.348 352.044 261.178 351.086 263.557 351.19C265.938 351.293 267.895 350.507 267.681 349.379C267.465 348.252 266.631 345.417 266.631 345.417L264.477 346.117Z" fill="url(#paint36_linear_2_16046)"/>
<path d="M264.157 342.474L264.695 346.924C264.695 346.924 266.095 347.481 267.035 346.822L267.437 341.94L264.157 342.474Z" fill="url(#paint37_linear_2_16046)"/>
<path d="M305.794 342.58L306.823 344.426C307.11 344.943 307.195 345.564 307.058 346.151C306.698 347.687 305.98 350.677 305.668 351.458C305.241 352.521 299.52 353.152 299.52 353.152C299.52 353.152 299.009 352.349 300.197 351.38C301.385 350.411 302.149 350.258 302.567 348.826C302.986 347.395 303.266 343.348 303.266 343.348L305.794 342.58Z" fill="url(#paint38_linear_2_16046)"/>
<path d="M301.515 337.89C301.891 338.225 303.728 344.46 303.728 344.46C303.728 344.46 304.324 345.311 305.454 344.056C306.584 342.801 305.965 343.494 305.965 343.494L305.753 337.36L301.515 337.89Z" fill="url(#paint39_linear_2_16046)"/>
<path d="M259.291 253.053C258.824 266.331 258.806 280.756 259.489 296.165C260.258 313.518 261.804 329.557 263.752 344.095C264.477 344.121 265.237 344.125 266.032 344.101C266.568 344.084 267.089 344.055 267.591 344.016C268.602 341 269.797 337.037 270.867 332.301C271.992 327.322 272.671 322.855 273.155 318.584C274.858 303.546 272.862 302.234 274.243 291.09C275.466 281.22 277.207 280.834 279.251 266.822C281.468 251.617 279.817 249.336 279.015 248.512C275.601 245.003 267.576 247.392 259.291 253.053Z" fill="#1A0F91"/>
<path opacity="0.1" d="M279.017 248.511C275.758 245.165 268.307 247.192 260.437 252.298C269.491 263.236 270.478 270.33 269.393 274.933C268.165 280.136 264.436 281.635 264.45 287.324C264.467 294.316 270.112 296.167 269.992 303.566C269.912 308.458 267.433 308.407 266.847 314.449C266.154 321.598 269.394 324.062 268.345 329.352C267.893 331.628 266.605 334.601 262.936 337.664C263.2 339.835 263.472 341.986 263.754 344.096C264.478 344.122 265.239 344.126 266.035 344.101C266.571 344.084 267.092 344.055 267.594 344.016C268.605 341.001 269.799 337.037 270.871 332.302C271.996 327.322 272.675 322.856 273.159 318.585C274.861 303.546 272.866 302.234 274.247 291.09C275.47 281.22 277.211 280.834 279.255 266.82C281.469 251.616 279.818 249.334 279.017 248.511Z" fill="#F4F7FA"/>
<path d="M264.897 252.83C272.692 265.583 281.101 281.456 288.621 300.455C294.304 314.813 298.426 328.292 301.452 340.306C301.861 340.518 302.826 340.94 304.061 340.759C305.745 340.51 306.753 339.308 307.018 338.973C308.249 330.36 308.114 323.066 307.695 317.802C307.427 314.431 306.954 308.819 305.032 301.89C302.88 294.129 301.401 293.692 298.592 285.481C295.677 276.957 296.384 274.832 293.592 264.165C292.446 259.783 290.526 253.263 287.359 245.463C279.873 247.918 272.385 250.374 264.897 252.83Z" fill="#1A0F91"/>
<path d="M262.824 197.417C254.216 191.795 250.527 192.444 248.031 187.394C245.563 182.4 245.568 174.475 249.653 170.277C249.953 169.968 253.065 166.871 257.274 167.402C263.642 168.205 264.111 176.25 271.255 179.935C277.307 183.058 283.907 180.861 288.374 179.375C299.13 175.796 300.727 169.024 306.304 170.105C313.292 171.457 313.909 182.693 320.871 183.385C325.524 183.848 326.632 178.966 332.75 177.622C339.939 176.042 347.825 180.714 352.25 186.392C360.335 196.774 358.206 212.267 353.146 221.725C348.99 229.495 340.054 238.433 332.527 236.51C326.58 234.991 324.644 227.494 319.528 228.241C315.89 228.772 315.759 232.723 311.459 234.757C304.399 238.096 295.683 231.731 293.305 229.995C286.528 225.046 287.608 221.882 278.869 211.96C275.417 208.039 270.446 202.395 262.824 197.417Z" fill="url(#paint40_linear_2_16046)"/>
<path d="M201.171 175.548C201.171 175.548 199.716 173.513 198.793 172.001C197.869 170.488 193.56 166.238 193.56 166.238C193.56 166.238 193.232 166.912 194.159 167.991C195.087 169.07 197.038 170.92 196.59 171.702C196.141 172.485 194.878 173.174 195.789 174.652C196.701 176.129 198.286 175.121 199.097 176.306C199.908 177.491 200.738 178.783 200.738 178.783L201.171 175.548Z" fill="url(#paint41_linear_2_16046)"/>
<path d="M201.74 174.22C200.759 175.88 199.777 177.538 198.796 179.198C199.818 182.534 201.579 187.168 204.663 192.055C206.024 194.211 210.242 200.535 217.385 205.623C227.108 212.547 244.821 219.006 250.006 211.639C254.633 205.064 247.165 190.492 245.79 187.875C243.007 189.335 238.433 191.27 232.553 191.728C230.627 191.878 225.611 192.22 219.962 190.278C209.505 186.686 203.699 177.622 201.74 174.22Z" fill="#FE7062"/>
<path d="M234.446 196.466C234.935 198.924 242.583 197.607 244.16 202.069C245.007 204.464 243.209 205.986 243.133 210.053C243.048 214.606 245.218 217.191 246.884 220.773C249.322 226.018 249.331 231.162 249.35 241.446C249.376 256.087 246.138 259.03 248.901 263.749C252.497 269.891 261.135 270.283 263.468 270.389C271.452 270.751 272.399 266.51 281.062 266.004C290.955 265.426 292.364 270.804 299.44 268.509C305.903 266.414 308.079 260.841 313.111 261.995C316.257 262.715 317.09 265.279 320.058 265.002C323.041 264.723 326.124 261.767 326.334 258.737C326.595 254.97 322.477 250.225 316.024 250.218C313.46 251.224 309.209 252.39 304.482 251.095C296.737 248.972 292.708 241.609 288.234 233.429C285.139 227.771 279.449 217.372 279.381 203.734C279.353 198.111 280.303 196.465 278.932 193.46C274.48 183.7 257.212 185.156 255.749 185.297C243.985 186.43 233.856 193.497 234.446 196.466Z" fill="#FE7062"/>
<path d="M230.587 208.749L252.279 209.696C252.517 209.707 252.726 209.878 252.806 210.128L263.024 241.822C263.171 242.277 262.711 243.414 262.281 243.362L240.836 240.101C240.618 240.074 240.432 239.914 240.352 239.685L229.721 210.102C229.571 209.662 230.167 208.731 230.587 208.749Z" fill="url(#paint42_linear_2_16046)"/>
<path d="M230.249 209.525L251.94 210.472C252.178 210.482 252.388 210.654 252.467 210.904L262.685 242.597C262.832 243.051 262.502 243.521 262.072 243.47L240.497 240.876C240.278 240.85 240.093 240.689 240.013 240.46L229.678 210.413C229.529 209.975 229.829 209.507 230.249 209.525Z" fill="url(#paint43_linear_2_16046)"/>
<path d="M236.182 210.706L235.346 208.18C235.27 207.952 235.422 207.709 235.639 207.709H243.535C243.671 207.709 243.792 207.807 243.833 207.952L244.628 210.747C244.693 210.976 244.536 211.208 244.32 211.202L236.466 210.934C236.339 210.929 236.226 210.84 236.182 210.706Z" fill="url(#paint44_linear_2_16046)"/>
<path opacity="0.3" d="M249.534 235.797C248.125 230.689 250.445 227.363 248.077 223.394C244.73 217.779 237.537 220.156 235.302 215.625C234.699 214.403 234.411 212.582 235.223 209.742L230.25 209.525C229.83 209.507 229.53 209.974 229.681 210.413L240.015 240.46C240.093 240.688 240.28 240.849 240.499 240.876L253.612 242.453C251.277 240.174 250.107 237.873 249.534 235.797Z" fill="url(#paint45_linear_2_16046)"/>
<path d="M265.372 232.001C265.372 232.001 262.094 231.272 260.83 230.383C259.567 229.493 258.226 228.064 256.362 228.141C254.498 228.219 252.622 229.279 253.484 229.522C254.345 229.765 255.954 231.674 257.182 232.426C258.41 233.178 261.217 233.246 261.741 233.204C262.264 233.164 264.327 234.552 264.327 234.552L265.372 232.001Z" fill="url(#paint46_linear_2_16046)"/>
<path opacity="0.3" d="M316.028 250.216C313.464 251.222 309.212 252.389 304.486 251.094C296.741 248.971 292.712 241.607 288.238 233.428C285.143 227.77 279.452 217.37 279.384 203.733C279.357 198.109 280.306 196.464 278.935 193.459C278.717 192.981 278.461 192.536 278.185 192.111C274.803 194.667 273.492 197.226 273.109 199.474C272.176 204.943 276.574 209.415 274.285 214.133C272.093 218.651 266.674 217.402 265.544 221.275C264.325 225.453 270.323 227.974 270.587 234.431C270.905 242.18 262.571 245.975 264.032 251.158C265.298 255.65 272.272 255.326 272.268 257.735C272.264 260.6 272.484 254.685 264.032 251.158C261.47 250.089 249.415 258.987 247.949 257.425C247.634 259.95 247.69 261.68 248.903 263.75C252.499 269.892 261.137 270.284 263.471 270.39C271.454 270.753 272.401 266.512 281.064 266.006C290.957 265.427 292.366 270.805 299.442 268.511C305.905 266.415 308.081 260.842 313.113 261.996C316.259 262.717 317.093 265.281 320.061 265.004C323.044 264.725 326.127 261.769 326.336 258.739C326.599 254.969 322.481 250.223 316.028 250.216Z" fill="#FE7062"/>
<path d="M265.29 230.481C264.281 232.487 263.273 234.491 262.264 236.495C263.82 237.347 280.443 246.141 292.493 237.434C293.983 236.358 297.943 233.497 300.076 227.895C302.428 221.721 301.11 215.98 300.253 212.251C298.134 203.021 292.141 193.338 283.639 189.448C280.391 187.962 276.536 187.21 272.91 186.503C269.834 185.904 265.001 185.169 264.897 185.69C264.848 185.944 265.97 186.268 266.75 186.761C271.54 189.791 265.457 202.303 271.089 208.305C276.482 214.053 283.482 213.104 284.61 218.313C285.134 220.735 284.049 222.914 283.565 223.885C280.867 229.3 273.603 231.724 265.29 230.481Z" fill="#FE7062"/>
<path d="M254.006 176.297C254.006 176.297 255.958 182.642 258.39 183.631C260.822 184.619 264.665 185.753 265.148 186.193C265.63 186.631 252.23 191.497 244.716 189.258C246.858 188.21 247.429 187.875 247.429 187.875C248.001 187.54 249.067 186.917 250.068 185.926C250.749 185.252 251.815 183.998 252.617 181.913L251.915 178.31L254.006 176.297Z" fill="url(#paint47_linear_2_16046)"/>
<path d="M254.885 179.066C254.885 179.066 253.754 181.879 251.071 181.447C248.668 181.061 248.79 174.303 250.423 173.152C250.967 172.769 252.073 172.622 252.892 172.958C253.469 173.194 255.185 174.766 254.802 177.067C255.331 176.752 255.859 176.802 256.042 177.084C256.275 177.443 255.898 178.094 255.813 178.242C255.517 178.755 255.087 178.978 254.885 179.066Z" fill="url(#paint48_linear_2_16046)"/>
<path d="M113.719 218.637C112.884 218.952 100.141 224.02 97.522 237.32C97.3101 238.394 95.2629 249.82 103.012 257.893C111.701 266.945 128.433 266.72 135.075 259.152C136.624 257.388 137.441 255.432 137.898 253.789L136.147 249.14C134.013 246.562 131.105 245.951 129.552 245.569C125.724 244.626 122.835 246.33 120.642 244.484C119.429 243.463 119.189 241.994 118.973 240.68C118.24 236.208 120.764 233.455 120.948 230.698C121.086 228.636 121.808 224.119 119.117 221.173C117.414 219.309 115.052 218.8 113.719 218.637Z" fill="url(#paint49_linear_2_16046)"/>
<path d="M108.754 366.857C108.605 366.038 105.961 365.297 104.652 366.394C104.001 366.938 103.554 368.042 103.929 368.54C104.067 368.722 103.506 369.04 104.043 369.047C105.825 369.069 108.902 367.67 108.754 366.857Z" fill="url(#paint50_linear_2_16046)"/>
<path d="M105.981 367.154L103.262 366.769C104.521 365.252 104.289 360.422 104.289 360.422L107.181 361.067C107.181 361.067 106.851 362.393 106.291 364.349C106.099 365.019 106.014 366.066 105.981 367.154Z" fill="url(#paint51_linear_2_16046)"/>
<path d="M106.225 366.822C106.225 366.822 102.951 366.067 102.598 366.717C102.243 367.368 101.969 369.106 104.046 369.05C106.122 368.994 106.409 367.373 106.225 366.822Z" fill="url(#paint52_linear_2_16046)"/>
<path d="M146.067 369.924C145.806 369.134 143.084 368.771 141.942 370.039C141.374 370.67 141.085 371.825 141.528 372.266C141.689 372.426 141.179 372.82 141.711 372.751C143.476 372.523 146.328 370.709 146.067 369.924Z" fill="url(#paint53_linear_2_16046)"/>
<path d="M143.364 370.609H140.619C141.653 368.931 140.747 364.181 140.747 364.181L143.701 364.415C143.701 364.415 143.559 365.774 143.278 367.789C143.183 368.479 143.244 369.528 143.364 370.609Z" fill="url(#paint54_linear_2_16046)"/>
<path d="M150.48 266.755C151.752 270.957 153.569 277.737 154.738 286.243C158.074 310.509 150.984 311.283 152.308 338.173C152.73 346.755 144.872 366.548 144.179 366.984C143.844 367.017 143.48 367.039 143.092 367.028C142.408 367.007 141.445 366.902 140.324 366.566C139.078 366.351 134.59 354.195 135.632 346.967C136.368 341.851 136.155 336.362 135.727 325.382C135.658 323.603 131.105 290.767 131.105 290.767C129.721 302.921 128.128 313.247 126.748 321.254C122.312 346.978 107.891 362.549 107.139 362.797C106.99 362.857 105.637 363.348 104.53 362.619C104.039 362.295 103.87 361.876 103.87 361.876C103.484 361.574 103.984 336.193 108.383 317.093C114.768 289.369 111.988 282.881 114.011 270.499C115.762 259.782 150.48 266.755 150.48 266.755Z" fill="url(#paint55_linear_2_16046)"/>
<path d="M152.189 270.941C148.355 272.909 138.48 276.435 126.711 274.684C121.492 273.907 117.291 272.201 114.279 270.638C114.188 270.592 114.095 270.546 114.009 270.5C117.066 261.256 114.671 256.309 113.54 251.748C111.927 245.248 111.904 245.74 110.575 240.573C108.386 232.049 108.028 223.343 109.531 221.563C113.586 216.759 120.896 216.585 124.688 216.47C128.927 216.345 138.673 214.852 144.038 219.678C144.13 219.761 143.031 220.35 143.574 220.984C144.075 221.573 145.799 223.637 147.362 226.422C148.494 228.44 149.518 230.794 150.549 234.297C152.364 240.48 152.889 245.748 153.063 248.043C153.118 248.801 153.169 249.536 153.215 250.244C153.927 261.636 153.021 267.136 152.189 270.941Z" fill="url(#paint56_linear_2_16046)"/>
<path d="M143.556 370.242C143.556 370.242 140.209 369.953 139.95 370.647C139.689 371.339 139.66 373.099 141.71 372.753C143.757 372.406 143.815 370.762 143.556 370.242Z" fill="url(#paint57_linear_2_16046)"/>
<path d="M136.89 211.054C138.046 208.747 137.286 206.258 137.115 205.72C136.405 203.47 136.175 203.137 135.717 202.683L135.072 202.09C135.072 202.09 135.033 202.065 134.991 202.04C134.553 201.783 132.961 201.424 132.623 201.431C131.544 201.452 129.625 205.461 128.787 211.493C128.7 211.713 128.614 211.934 128.529 212.158C128.002 213.55 127.561 214.913 127.193 216.238C119.968 217.36 119.019 218.284 119.02 218.779C119.024 219.82 123.249 220.729 126.395 220.967C133.258 221.486 140.115 219.208 139.993 217.943C139.941 217.392 138.541 216.768 132.729 216.416C132.797 215.453 132.865 214.492 132.933 213.529C133.398 213.393 136.04 212.752 136.89 211.054Z" fill="url(#paint58_linear_2_16046)"/>
<path d="M137.545 200.808C137.181 202.656 135.928 204.463 135.423 204.696C135.358 204.726 134.986 204.918 134.612 205.299C134.561 205.35 134.513 205.413 134.464 205.496C133.834 206.583 135.423 208.313 134.964 208.767C134.632 209.095 133.47 208.346 133.257 208.644C133.057 208.924 133.98 209.764 133.749 210.101C133.573 210.356 132.979 209.977 132.49 210.325C132.247 210.497 132.273 210.678 131.934 211.285C131.742 211.629 131.495 211.998 131.321 212.195C130.472 213.158 128.584 213.205 128.32 212.703C128.247 212.563 128.349 212.478 128.329 212.052C128.329 212.052 128.309 211.656 128.132 211.171C127.878 210.477 127.059 209.856 126.274 209.024C124.819 207.482 124.56 206.356 124.491 205.979C124.466 205.844 124.455 205.745 124.445 205.673C124.269 204.225 124.653 202.222 125.505 201.109C126.929 199.243 129.056 200.671 131.347 198.992C133.989 197.056 133.309 193.582 134.565 193.455C135.949 193.313 138.217 197.39 137.545 200.808Z" fill="#26264F"/>
<path d="M134.385 208.203C134.052 207.493 133.143 207.924 132.983 208.729C132.822 209.533 133.442 210.522 134.23 210.509C135.017 210.497 134.832 209.159 134.385 208.203Z" fill="url(#paint59_linear_2_16046)"/>
<path d="M115.365 264.776C115.356 264.776 115.347 264.776 115.338 264.774C115.202 264.76 115.105 264.637 115.121 264.502C115.619 260.016 114.688 256.754 113.867 253.875C113.666 253.17 113.471 252.485 113.303 251.809C112.39 248.127 111.99 246.705 111.566 245.198C111.287 244.209 111.004 243.196 110.56 241.492C110.526 241.36 110.606 241.225 110.737 241.191C110.87 241.153 111.005 241.237 111.038 241.367C111.48 243.067 111.764 244.078 112.041 245.064C112.466 246.575 112.867 248.001 113.781 251.691C113.947 252.361 114.141 253.04 114.341 253.74C115.174 256.662 116.119 259.976 115.61 264.558C115.596 264.683 115.49 264.776 115.365 264.776Z" fill="url(#paint60_linear_2_16046)"/>
<path opacity="0.3" d="M152.188 270.943C148.354 272.91 138.479 276.437 126.709 274.685C121.491 273.908 117.29 272.202 114.278 270.639C115.644 269.577 117.326 267.798 120.107 264.773C123.477 261.114 127.426 262.479 129.748 263.859C131.421 264.848 133.495 264.875 135.191 263.937C136.892 262.996 137.969 261.226 138.018 259.284C138.046 258.392 138.004 257.377 137.894 256.227C137.099 247.901 148.634 247.193 148.634 247.193C150.261 246.347 151.806 247.712 153.212 250.246C153.926 261.638 153.02 267.137 152.188 270.943Z" fill="url(#paint61_linear_2_16046)"/>
<path d="M192.513 233.856C192.049 233.9 191.487 234.37 191.092 234.595C190.531 234.913 189.966 235.225 189.394 235.523C188.29 236.099 187.121 236.525 185.857 236.502C185.893 236.321 185.955 236.141 186.026 235.969C186.239 235.468 186.522 235.037 186.353 234.886C186.112 234.668 185.052 235.118 184.073 236.056C183.677 236.429 183.299 236.889 182.99 237.412C182.49 238.263 182.575 238.728 182.157 239.377C181.535 239.934 181.07 240.056 181.07 240.056V240.234L181.14 240.452C180.584 240.876 179.958 241.126 179.466 241.29C180.33 241.521 181.176 241.758 182.035 241.995L182.633 242.991C182.633 242.991 185.893 242.309 187.859 241.117C188.778 240.557 189.095 239.865 189.172 239.292C189.227 238.91 189.171 238.582 189.121 238.372C189.081 238.222 189.044 238.132 189.044 238.132C189.044 238.132 191.729 237.017 192.789 234.605C192.949 234.239 192.964 233.812 192.513 233.856Z" fill="url(#paint62_linear_2_16046)"/>
<path d="M181.141 239.054C182.674 240.127 183.495 241.584 183.922 242.513C182.794 245.158 180.238 250.07 174.948 253.69C166.274 259.625 153.554 259.825 144.695 253.057C134.111 244.97 132.342 229.463 136.787 222.822C137.299 222.058 138.982 219.544 141.593 219.256C143.243 219.074 145.489 219.754 149.035 223.908C156.428 232.562 153.817 237.966 158.183 240.499C164.732 244.295 174.463 234.382 181.141 239.054Z" fill="url(#paint63_linear_2_16046)"/>
<defs>
<linearGradient id="paint0_linear_2_16046" x1="46.6571" y1="258.381" x2="328.636" y2="258.381" gradientUnits="userSpaceOnUse">
<stop offset="0.494" stop-color="#EBEFF2"/>
<stop offset="1" stop-color="white"/>
</linearGradient>
<linearGradient id="paint1_linear_2_16046" x1="315.257" y1="149.981" x2="284.949" y2="173.365" gradientUnits="userSpaceOnUse">
<stop stop-color="#FFC444"/>
<stop offset="0.9964" stop-color="#F36F56"/>
</linearGradient>
<linearGradient id="paint2_linear_2_16046" x1="288.391" y1="115.175" x2="223.42" y2="180.603" gradientUnits="userSpaceOnUse">
<stop stop-color="#AA80F9"/>
<stop offset="0.9964" stop-color="#6165D7"/>
</linearGradient>
<linearGradient id="paint3_linear_2_16046" x1="233.211" y1="205.395" x2="245.74" y2="176.447" gradientUnits="userSpaceOnUse">
<stop stop-color="#AA80F9"/>
<stop offset="0.9964" stop-color="#6165D7"/>
</linearGradient>
<linearGradient id="paint4_linear_2_16046" x1="112.531" y1="268.886" x2="201.81" y2="62.5985" gradientUnits="userSpaceOnUse">
<stop stop-color="#AA80F9"/>
<stop offset="0.9964" stop-color="#6165D7"/>
</linearGradient>
<linearGradient id="paint5_linear_2_16046" x1="142.331" y1="139.394" x2="171.491" y2="86.1553" gradientUnits="userSpaceOnUse">
<stop stop-color="#FFC444"/>
<stop offset="0.463" stop-color="#FFC244"/>
<stop offset="0.6297" stop-color="#FEBB46"/>
<stop offset="0.7486" stop-color="#FCB048"/>
<stop offset="0.8447" stop-color="#FA9F4C"/>
<stop offset="0.9261" stop-color="#F78951"/>
<stop offset="0.9964" stop-color="#F36F56"/>
</linearGradient>
<linearGradient id="paint6_linear_2_16046" x1="137.081" y1="120.312" x2="166.467" y2="84.5579" gradientUnits="userSpaceOnUse">
<stop stop-color="#311944"/>
<stop offset="1" stop-color="#6B3976"/>
</linearGradient>
<linearGradient id="paint7_linear_2_16046" x1="160.811" y1="95.3172" x2="144.3" y2="156.381" gradientUnits="userSpaceOnUse">
<stop stop-color="#FFC444"/>
<stop offset="0.9964" stop-color="#F36F56"/>
</linearGradient>
<linearGradient id="paint8_linear_2_16046" x1="141.197" y1="124.121" x2="171.018" y2="87.8381" gradientUnits="userSpaceOnUse">
<stop stop-color="#311944"/>
<stop offset="1" stop-color="#6B3976"/>
</linearGradient>
<linearGradient id="paint9_linear_2_16046" x1="164.985" y1="104.328" x2="161.756" y2="111.47" gradientUnits="userSpaceOnUse">
<stop stop-color="#FFC444"/>
<stop offset="1" stop-color="#F36F56"/>
</linearGradient>
<linearGradient id="paint10_linear_2_16046" x1="128.676" y1="275.854" x2="218.006" y2="69.4469" gradientUnits="userSpaceOnUse">
<stop stop-color="#AA80F9"/>
<stop offset="0.9964" stop-color="#6165D7"/>
</linearGradient>
<linearGradient id="paint11_linear_2_16046" x1="102.981" y1="226.218" x2="107.123" y2="238.86" gradientUnits="userSpaceOnUse">
<stop stop-color="#FFC444"/>
<stop offset="0.9964" stop-color="#F36F56"/>
</linearGradient>
<linearGradient id="paint12_linear_2_16046" x1="46.7485" y1="238.742" x2="135.283" y2="34.1743" gradientUnits="userSpaceOnUse">
<stop stop-color="#AA80F9"/>
<stop offset="0.9964" stop-color="#6165D7"/>
</linearGradient>
<linearGradient id="paint13_linear_2_16046" x1="258.838" y1="106.399" x2="350.324" y2="106.399" gradientUnits="userSpaceOnUse">
<stop stop-color="#311944"/>
<stop offset="1" stop-color="#893976"/>
</linearGradient>
<linearGradient id="paint14_linear_2_16046" x1="332.901" y1="59.3281" x2="242.551" y2="219.494" gradientUnits="userSpaceOnUse">
<stop stop-color="#FFC444"/>
<stop offset="0.9964" stop-color="#F36F56"/>
</linearGradient>
<linearGradient id="paint15_linear_2_16046" x1="332.858" y1="59.3017" x2="242.508" y2="219.469" gradientUnits="userSpaceOnUse">
<stop stop-color="#FFC444"/>
<stop offset="0.9964" stop-color="#F36F56"/>
</linearGradient>
<linearGradient id="paint16_linear_2_16046" x1="223.691" y1="52.7482" x2="286.564" y2="52.7482" gradientUnits="userSpaceOnUse">
<stop stop-color="#311944"/>
<stop offset="1" stop-color="#893976"/>
</linearGradient>
<linearGradient id="paint17_linear_2_16046" x1="274.593" y1="20.3986" x2="212.5" y2="130.472" gradientUnits="userSpaceOnUse">
<stop stop-color="#FFC444"/>
<stop offset="0.9964" stop-color="#F36F56"/>
</linearGradient>
<linearGradient id="paint18_linear_2_16046" x1="274.562" y1="20.3816" x2="212.469" y2="130.455" gradientUnits="userSpaceOnUse">
<stop stop-color="#FFC444"/>
<stop offset="0.9964" stop-color="#F36F56"/>
</linearGradient>
<linearGradient id="paint19_linear_2_16046" x1="177.87" y1="36.5526" x2="221.079" y2="36.5526" gradientUnits="userSpaceOnUse">
<stop stop-color="#311944"/>
<stop offset="1" stop-color="#893976"/>
</linearGradient>
<linearGradient id="paint20_linear_2_16046" x1="212.851" y1="14.3205" x2="170.178" y2="89.9681" gradientUnits="userSpaceOnUse">
<stop stop-color="#FFC444"/>
<stop offset="0.9964" stop-color="#F36F56"/>
</linearGradient>
<linearGradient id="paint21_linear_2_16046" x1="212.832" y1="14.3089" x2="170.159" y2="89.9563" gradientUnits="userSpaceOnUse">
<stop stop-color="#FFC444"/>
<stop offset="0.9964" stop-color="#F36F56"/>
</linearGradient>
<linearGradient id="paint22_linear_2_16046" x1="81.3185" y1="362.549" x2="77.0425" y2="338.573" gradientUnits="userSpaceOnUse">
<stop stop-color="#444B8C"/>
<stop offset="0.9964" stop-color="#26264F"/>
</linearGradient>
<linearGradient id="paint23_linear_2_16046" x1="75.8022" y1="357.327" x2="80.2085" y2="320.145" gradientUnits="userSpaceOnUse">
<stop stop-color="#FFC444"/>
<stop offset="0.9964" stop-color="#F36F56"/>
</linearGradient>
<linearGradient id="paint24_linear_2_16046" x1="89.4911" y1="358.949" x2="93.8984" y2="321.766" gradientUnits="userSpaceOnUse">
<stop stop-color="#FFC444"/>
<stop offset="0.9964" stop-color="#F36F56"/>
</linearGradient>
<linearGradient id="paint25_linear_2_16046" x1="91.9113" y1="360.66" x2="87.6352" y2="336.683" gradientUnits="userSpaceOnUse">
<stop stop-color="#444B8C"/>
<stop offset="0.9964" stop-color="#26264F"/>
</linearGradient>
<linearGradient id="paint26_linear_2_16046" x1="114.965" y1="222.639" x2="60.8087" y2="281.314" gradientUnits="userSpaceOnUse">
<stop stop-color="#FF9085"/>
<stop offset="1" stop-color="#FB6FBB"/>
</linearGradient>
<linearGradient id="paint27_linear_2_16046" x1="99.1823" y1="203.734" x2="89.6386" y2="215.739" gradientUnits="userSpaceOnUse">
<stop stop-color="#FFC444"/>
<stop offset="0.463" stop-color="#FFC244"/>
<stop offset="0.6297" stop-color="#FEBB46"/>
<stop offset="0.7486" stop-color="#FCB048"/>
<stop offset="0.8447" stop-color="#FA9F4C"/>
<stop offset="0.9261" stop-color="#F78951"/>
<stop offset="0.9964" stop-color="#F36F56"/>
</linearGradient>
<linearGradient id="paint28_linear_2_16046" x1="126.629" y1="227.322" x2="107.393" y2="251.52" gradientUnits="userSpaceOnUse">
<stop stop-color="#444B8C"/>
<stop offset="0.9964" stop-color="#26264F"/>
</linearGradient>
<linearGradient id="paint29_linear_2_16046" x1="124.966" y1="227.819" x2="108.259" y2="252.579" gradientUnits="userSpaceOnUse">
<stop stop-color="#FFC444"/>
<stop offset="0.9964" stop-color="#F36F56"/>
</linearGradient>
<linearGradient id="paint30_linear_2_16046" x1="128.819" y1="238.048" x2="124.203" y2="243.854" gradientUnits="userSpaceOnUse">
<stop stop-color="#311944"/>
<stop offset="1" stop-color="#893976"/>
</linearGradient>
<linearGradient id="paint31_linear_2_16046" x1="95.9425" y1="207.532" x2="134.225" y2="278.935" gradientUnits="userSpaceOnUse">
<stop stop-color="#FF9085"/>
<stop offset="1" stop-color="#FB6FBB"/>
</linearGradient>
<linearGradient id="paint32_linear_2_16046" x1="78.3362" y1="190.544" x2="54.4944" y2="251.126" gradientUnits="userSpaceOnUse">
<stop stop-color="#444B8C"/>
<stop offset="0.9964" stop-color="#26264F"/>
</linearGradient>
<linearGradient id="paint33_linear_2_16046" x1="142.929" y1="49.5485" x2="176.1" y2="49.5485" gradientUnits="userSpaceOnUse">
<stop stop-color="#311944"/>
<stop offset="1" stop-color="#893976"/>
</linearGradient>
<linearGradient id="paint34_linear_2_16046" x1="169.784" y1="32.4812" x2="137.024" y2="90.5547" gradientUnits="userSpaceOnUse">
<stop stop-color="#FFC444"/>
<stop offset="0.9964" stop-color="#F36F56"/>
</linearGradient>
<linearGradient id="paint35_linear_2_16046" x1="169.768" y1="32.4722" x2="137.009" y2="90.5453" gradientUnits="userSpaceOnUse">
<stop stop-color="#FFC444"/>
<stop offset="0.9964" stop-color="#F36F56"/>
</linearGradient>
<linearGradient id="paint36_linear_2_16046" x1="260.021" y1="330.435" x2="262.485" y2="361.789" gradientUnits="userSpaceOnUse">
<stop stop-color="#AA80F9"/>
<stop offset="0.9964" stop-color="#6165D7"/>
</linearGradient>
<linearGradient id="paint37_linear_2_16046" x1="265.876" y1="347.933" x2="265.429" y2="315.55" gradientUnits="userSpaceOnUse">
<stop stop-color="#FFC444"/>
<stop offset="0.9964" stop-color="#F36F56"/>
</linearGradient>
<linearGradient id="paint38_linear_2_16046" x1="301.51" y1="326.769" x2="303.98" y2="358.206" gradientUnits="userSpaceOnUse">
<stop stop-color="#AA80F9"/>
<stop offset="0.9964" stop-color="#6165D7"/>
</linearGradient>
<linearGradient id="paint39_linear_2_16046" x1="303.918" y1="347.346" x2="303.471" y2="314.966" gradientUnits="userSpaceOnUse">
<stop stop-color="#FFC444"/>
<stop offset="0.9964" stop-color="#F36F56"/>
</linearGradient>
<linearGradient id="paint40_linear_2_16046" x1="295.66" y1="183.256" x2="336.845" y2="220.95" gradientUnits="userSpaceOnUse">
<stop offset="0.003597" stop-color="#26264F"/>
<stop offset="1" stop-color="#444B8C"/>
</linearGradient>
<linearGradient id="paint41_linear_2_16046" x1="193.505" y1="172.511" x2="201.171" y2="172.511" gradientUnits="userSpaceOnUse">
<stop stop-color="#FFC444"/>
<stop offset="0.9964" stop-color="#F36F56"/>
</linearGradient>
<linearGradient id="paint42_linear_2_16046" x1="249.698" y1="220.573" x2="236.283" y2="242.809" gradientUnits="userSpaceOnUse">
<stop offset="0.003597" stop-color="#6165D7"/>
<stop offset="1" stop-color="#AA80F9"/>
</linearGradient>
<linearGradient id="paint43_linear_2_16046" x1="229.64" y1="226.499" x2="262.721" y2="226.499" gradientUnits="userSpaceOnUse">
<stop offset="0.003597" stop-color="#26264F"/>
<stop offset="1" stop-color="#444B8C"/>
</linearGradient>
<linearGradient id="paint44_linear_2_16046" x1="243.71" y1="197.261" x2="239.765" y2="210.17" gradientUnits="userSpaceOnUse">
<stop offset="0.003597" stop-color="#26264F"/>
<stop offset="1" stop-color="#444B8C"/>
</linearGradient>
<linearGradient id="paint45_linear_2_16046" x1="229.642" y1="225.988" x2="253.612" y2="225.988" gradientUnits="userSpaceOnUse">
<stop offset="0.003597" stop-color="#26264F"/>
<stop offset="1" stop-color="#444B8C"/>
</linearGradient>
<linearGradient id="paint46_linear_2_16046" x1="253.268" y1="231.345" x2="265.372" y2="231.345" gradientUnits="userSpaceOnUse">
<stop stop-color="#FFC444"/>
<stop offset="0.9964" stop-color="#F36F56"/>
</linearGradient>
<linearGradient id="paint47_linear_2_16046" x1="254.5" y1="188.791" x2="265.041" y2="163.604" gradientUnits="userSpaceOnUse">
<stop stop-color="#FFC444"/>
<stop offset="0.9964" stop-color="#F36F56"/>
</linearGradient>
<linearGradient id="paint48_linear_2_16046" x1="250.516" y1="178.352" x2="273.924" y2="156.597" gradientUnits="userSpaceOnUse">
<stop stop-color="#FFC444"/>
<stop offset="0.9964" stop-color="#F36F56"/>
</linearGradient>
<linearGradient id="paint49_linear_2_16046" x1="120.735" y1="262.476" x2="109.725" y2="218.436" gradientUnits="userSpaceOnUse">
<stop stop-color="#FFC444"/>
<stop offset="0.463" stop-color="#FFC244"/>
<stop offset="0.6297" stop-color="#FEBB46"/>
<stop offset="0.7486" stop-color="#FCB048"/>
<stop offset="0.8447" stop-color="#FA9F4C"/>
<stop offset="0.9261" stop-color="#F78951"/>
<stop offset="0.9964" stop-color="#F36F56"/>
</linearGradient>
<linearGradient id="paint50_linear_2_16046" x1="110.223" y1="364.494" x2="104.4" y2="368.363" gradientUnits="userSpaceOnUse">
<stop stop-color="#444B8C"/>
<stop offset="0.9964" stop-color="#26264F"/>
</linearGradient>
<linearGradient id="paint51_linear_2_16046" x1="104.589" y1="368.398" x2="105.862" y2="359.388" gradientUnits="userSpaceOnUse">
<stop stop-color="#FFC444"/>
<stop offset="0.9964" stop-color="#F36F56"/>
</linearGradient>
<linearGradient id="paint52_linear_2_16046" x1="109.786" y1="363.838" x2="103.964" y2="367.706" gradientUnits="userSpaceOnUse">
<stop stop-color="#444B8C"/>
<stop offset="0.9964" stop-color="#26264F"/>
</linearGradient>
<linearGradient id="paint53_linear_2_16046" x1="147.191" y1="367.38" x2="141.968" y2="372.026" gradientUnits="userSpaceOnUse">
<stop stop-color="#444B8C"/>
<stop offset="0.9964" stop-color="#26264F"/>
</linearGradient>
<linearGradient id="paint54_linear_2_16046" x1="142.159" y1="372.036" x2="142.159" y2="362.937" gradientUnits="userSpaceOnUse">
<stop stop-color="#FFC444"/>
<stop offset="0.9964" stop-color="#F36F56"/>
</linearGradient>
<linearGradient id="paint55_linear_2_16046" x1="142.586" y1="376.209" x2="108.528" y2="238.702" gradientUnits="userSpaceOnUse">
<stop stop-color="#444B8C"/>
<stop offset="0.9964" stop-color="#26264F"/>
</linearGradient>
<linearGradient id="paint56_linear_2_16046" x1="170.229" y1="273.696" x2="84.1118" y2="213.805" gradientUnits="userSpaceOnUse">
<stop stop-color="#FFC444"/>
<stop offset="0.463" stop-color="#FFC244"/>
<stop offset="0.6297" stop-color="#FEBB46"/>
<stop offset="0.7486" stop-color="#FCB048"/>
<stop offset="0.8447" stop-color="#FA9F4C"/>
<stop offset="0.9261" stop-color="#F78951"/>
<stop offset="0.9964" stop-color="#F36F56"/>
</linearGradient>
<linearGradient id="paint57_linear_2_16046" x1="146.664" y1="366.789" x2="141.441" y2="371.435" gradientUnits="userSpaceOnUse">
<stop stop-color="#444B8C"/>
<stop offset="0.9964" stop-color="#26264F"/>
</linearGradient>
<linearGradient id="paint58_linear_2_16046" x1="141.615" y1="200.753" x2="115.878" y2="238.225" gradientUnits="userSpaceOnUse">
<stop stop-color="#FFC444"/>
<stop offset="0.9964" stop-color="#F36F56"/>
</linearGradient>
<linearGradient id="paint59_linear_2_16046" x1="140.356" y1="199.89" x2="114.618" y2="237.356" gradientUnits="userSpaceOnUse">
<stop stop-color="#FFC444"/>
<stop offset="0.9964" stop-color="#F36F56"/>
</linearGradient>
<linearGradient id="paint60_linear_2_16046" x1="110.552" y1="252.979" x2="115.753" y2="252.979" gradientUnits="userSpaceOnUse">
<stop offset="0.003597" stop-color="#6165D7"/>
<stop offset="1" stop-color="#AA80F9"/>
</linearGradient>
<linearGradient id="paint61_linear_2_16046" x1="114.279" y1="261.051" x2="153.471" y2="261.051" gradientUnits="userSpaceOnUse">
<stop stop-color="#FFC444"/>
<stop offset="0.463" stop-color="#FFC244"/>
<stop offset="0.6297" stop-color="#FEBB46"/>
<stop offset="0.7486" stop-color="#FCB048"/>
<stop offset="0.8447" stop-color="#FA9F4C"/>
<stop offset="0.9261" stop-color="#F78951"/>
<stop offset="0.9964" stop-color="#F36F56"/>
</linearGradient>
<linearGradient id="paint62_linear_2_16046" x1="183.736" y1="234.59" x2="191.55" y2="244.422" gradientUnits="userSpaceOnUse">
<stop stop-color="#FFC444"/>
<stop offset="0.9964" stop-color="#F36F56"/>
</linearGradient>
<linearGradient id="paint63_linear_2_16046" x1="97.3798" y1="278.465" x2="179.682" y2="221.228" gradientUnits="userSpaceOnUse">
<stop stop-color="#FFC444"/>
<stop offset="0.463" stop-color="#FFC244"/>
<stop offset="0.6297" stop-color="#FEBB46"/>
<stop offset="0.7486" stop-color="#FCB048"/>
<stop offset="0.8447" stop-color="#FA9F4C"/>
<stop offset="0.9261" stop-color="#F78951"/>
<stop offset="0.9964" stop-color="#F36F56"/>
</linearGradient>
</defs>
</svg>
