<svg width="27" height="24" viewBox="0 0 27 24" fill="none" xmlns="http://www.w3.org/2000/svg">
<path d="M4.5 6C5.09334 6 5.67336 5.82405 6.16671 5.49441C6.66006 5.16477 7.04458 4.69623 7.27164 4.14805C7.4987 3.59987 7.55811 2.99667 7.44236 2.41473C7.3266 1.83279 7.04088 1.29824 6.62132 0.878681C6.20176 0.459124 5.66721 0.173401 5.08527 0.0576455C4.50333 -0.0581102 3.90013 0.00129984 3.35195 0.228363C2.80377 0.455426 2.33524 0.839943 2.00559 1.33329C1.67595 1.82664 1.5 2.40666 1.5 3C1.5 3.79565 1.81607 4.55871 2.37868 5.12132C2.94129 5.68393 3.70435 6 4.5 6ZM4.5 14.2538C4.49933 13.9734 4.55567 13.6959 4.66558 13.4381C4.77549 13.1802 4.93669 12.9474 5.13937 12.7538L8.52047 9.5625C8.59781 9.48985 8.69719 9.45422 8.78344 9.39516C8.56284 8.8367 8.17951 8.35742 7.68319 8.01949C7.18687 7.68156 6.60045 7.50057 6 7.5H3C2.20435 7.5 1.44129 7.81607 0.87868 8.37868C0.316071 8.94129 0 9.70435 0 10.5L0 15C0 15.3978 0.158035 15.7794 0.43934 16.0607C0.720644 16.342 1.10218 16.5 1.5 16.5V22.5C1.5 22.8978 1.65804 23.2794 1.93934 23.5607C2.22064 23.842 2.60218 24 3 24H6C6.39782 24 6.77936 23.842 7.06066 23.5607C7.34196 23.2794 7.5 22.8978 7.5 22.5V17.9817L5.13937 15.7538C4.93662 15.5602 4.77538 15.3274 4.66547 15.0695C4.55555 14.8116 4.49925 14.5341 4.5 14.2538ZM22.5 6C23.0933 6 23.6734 5.82405 24.1667 5.49441C24.6601 5.16477 25.0446 4.69623 25.2716 4.14805C25.4987 3.59987 25.5581 2.99667 25.4424 2.41473C25.3266 1.83279 25.0409 1.29824 24.6213 0.878681C24.2018 0.459124 23.6672 0.173401 23.0853 0.0576455C22.5033 -0.0581102 21.9001 0.00129984 21.3519 0.228363C20.8038 0.455426 20.3352 0.839943 20.0056 1.33329C19.6759 1.82664 19.5 2.40666 19.5 3C19.5 3.79565 19.8161 4.55871 20.3787 5.12132C20.9413 5.68393 21.7043 6 22.5 6ZM24 7.5H21C20.3996 7.50053 19.8132 7.68145 19.3169 8.0193C18.8206 8.35714 18.4372 8.83632 18.2166 9.39469C18.3028 9.45422 18.4041 9.48844 18.48 9.56297L21.8606 12.7533C22.0627 12.9474 22.2235 13.1803 22.3333 13.438C22.4431 13.6958 22.4997 13.9731 22.4997 14.2533C22.4997 14.5335 22.4431 14.8108 22.3333 15.0685C22.2235 15.3263 22.0627 15.5592 21.8606 15.7533L19.5 17.9822V22.5C19.5 22.8978 19.658 23.2794 19.9393 23.5607C20.2206 23.842 20.6022 24 21 24H24C24.3978 24 24.7794 23.842 25.0607 23.5607C25.342 23.2794 25.5 22.8978 25.5 22.5V16.5C25.8978 16.5 26.2794 16.342 26.5607 16.0607C26.842 15.7794 27 15.3978 27 15V10.5C27 9.70435 26.6839 8.94129 26.1213 8.37868C25.5587 7.81607 24.7957 7.5 24 7.5ZM20.8312 13.8441L17.4506 10.6538C17.3708 10.5777 17.2704 10.5267 17.1619 10.5073C17.0534 10.4878 16.9416 10.5006 16.8403 10.5441C16.739 10.5877 16.6528 10.66 16.5923 10.7522C16.5318 10.8444 16.4997 10.9523 16.5 11.0625V12.75H10.5V11.0625C10.5004 10.9522 10.4684 10.8442 10.4079 10.752C10.3475 10.6598 10.2612 10.5874 10.1599 10.5438C10.0586 10.5002 9.94674 10.4873 9.83818 10.5068C9.72963 10.5262 9.6292 10.5772 9.54938 10.6533L6.16875 13.8441C6.06069 13.9529 6.00005 14.1001 6.00005 14.2535C6.00005 14.4069 6.06069 14.5541 6.16875 14.663L9.54938 17.8538C9.62923 17.9299 9.7297 17.9808 9.8383 18.0003C9.94689 18.0198 10.0588 18.0068 10.1601 17.9632C10.2614 17.9195 10.3477 17.847 10.4081 17.7547C10.4685 17.6624 10.5005 17.5544 10.5 17.4441V15.75H16.5V17.4441C16.4995 17.5544 16.5315 17.6624 16.5919 17.7547C16.6523 17.847 16.7386 17.9195 16.8399 17.9632C16.9412 18.0068 17.0531 18.0198 17.1617 18.0003C17.2703 17.9808 17.3708 17.9299 17.4506 17.8538L20.8312 14.663C20.9393 14.5541 20.9999 14.4069 20.9999 14.2535C20.9999 14.1001 20.9393 13.9529 20.8312 13.8441Z" fill="white"/>
</svg>
