<svg width="24" height="24" viewBox="0 0 24 24" fill="none" xmlns="http://www.w3.org/2000/svg">
<path d="M-0.000275612 7.00003C-0.000731945 6.76638 0.0806427 6.53994 0.229724 6.36003L5.22972 0.360032C5.39946 0.155815 5.64337 0.0273905 5.9078 0.0030108C6.17223 -0.0213689 6.43551 0.060293 6.63972 0.230032C6.84394 0.39977 6.97237 0.643682 6.99675 0.908108C7.02112 1.17253 6.93946 1.43581 6.76972 1.64003L2.28972 7.00003L6.60972 12.36C6.69279 12.4623 6.75482 12.58 6.79225 12.7064C6.82969 12.8327 6.84178 12.9652 6.82784 13.0962C6.8139 13.2272 6.7742 13.3542 6.71103 13.4699C6.64786 13.5855 6.56245 13.6875 6.45972 13.77C6.3569 13.8616 6.23628 13.931 6.1054 13.9738C5.97453 14.0166 5.83623 14.0319 5.69917 14.0187C5.5621 14.0056 5.42923 13.9643 5.30887 13.8974C5.18852 13.8305 5.08327 13.7395 4.99972 13.63L0.169724 7.63003C0.0442085 7.44495 -0.0156465 7.22313 -0.000275612 7.00003Z" fill="#6A7887"/>
</svg>
