<svg width="27" height="24" viewBox="0 0 27 24" fill="none" xmlns="http://www.w3.org/2000/svg">
<path d="M24.9186 23.558C24.326 23.558 23.849 23.3665 23.2564 23.0129L8.52784 14.1878C7.74732 13.7017 7.29925 13.1713 7.14026 12.5525V22.0258C7.14026 23.3223 6.47537 24 5.21788 24H1.92238C0.650427 24 -1.90735e-06 23.3223 -1.90735e-06 22.0258V1.95948C-1.90735e-06 0.618785 0.650427 0 1.92238 0H5.21788C6.47537 0 7.14026 0.677716 7.14026 1.95948V11.418C7.29925 10.814 7.74732 10.2689 8.52784 9.79742L23.2564 0.957643C23.849 0.604052 24.326 0.412523 24.9186 0.412523C26.0605 0.412523 27 1.2965 27 2.94659V21.0387C27 22.6888 26.0605 23.558 24.9186 23.558Z" fill="#F9FAFC"/>
</svg>
