<svg width="72" height="72" viewBox="0 0 72 72" fill="none" xmlns="http://www.w3.org/2000/svg">
    <circle cx="36" cy="36" r="36" fill="#F9FAFC"/>
    <g clip-path="url(#clip0_2_17315)">
        <path d="M49.2761 51.9259V55.3103C49.2761 55.6914 48.9675 56 48.5864 56H23.414C23.033 56 22.7244 55.6914 22.7244 55.3103V51.9259C22.7244 49.3233 24.2718 47.081 26.4968 46.0698C25.5889 45.3475 24.2052 44.3766 23.1985 42.2879C21.7963 39.3829 22.0363 35.9559 23.8226 33.2733C24.7933 31.8164 25.3106 30.106 25.3106 28.356V24.6207C25.3106 19.8595 29.17 16 33.9313 16H38.0692C42.8304 16 46.6899 19.8595 46.6899 24.6207C46.6899 28.5765 46.5932 29.3511 47.07 30.9241C47.7429 33.1484 48.6316 33.4235 49.3166 35.6871C50.3934 39.2452 49.2023 43.1256 46.2675 45.4621L45.5037 46.0698C47.7287 47.081 49.2761 49.3233 49.2761 51.9259Z" fill="#FFDFBA"/>
        <path d="M49.2758 51.9255V55.31C49.2758 55.6908 48.9671 55.9996 48.5862 55.9996H23.4138C23.0329 55.9996 22.7241 55.6908 22.7241 55.31V51.9255C22.7241 48.3771 25.6008 45.4971 29.1526 45.4971C29.681 45.4971 30.1827 45.3824 30.6336 45.1772L30.6552 45.2238L35.5778 49.0348C35.8264 49.2272 36.1736 49.2272 36.4222 49.0348L41.3448 45.2238L41.3664 45.1772C41.8172 45.3824 42.3189 45.4971 42.8474 45.4971C46.3854 45.4971 49.2758 48.3634 49.2758 51.9255Z" fill="#FFAA64"/>
        <path d="M43.8815 28.6085C44.2477 28.6293 44.5343 28.9302 44.5343 29.2969V33.425C44.5343 36.9828 42.3576 40.0319 39.2627 41.313C33.6665 43.636 27.4653 39.5092 27.4653 33.425V29.3569C27.4653 28.9527 27.8115 28.6333 28.2141 28.6698C32.3509 29.0449 36.4246 28.0002 39.8454 25.6957C40.2345 25.4337 40.7702 25.6278 40.893 26.0806C41.3185 27.649 42.4791 28.5286 43.8815 28.6085Z" fill="#FFEBD2"/>
        <path d="M46.2674 45.4621L45.5036 46.0698C44.6941 45.7026 43.7949 45.4974 42.8475 45.4974C40.8795 45.4974 39.276 43.9082 39.276 41.9336V41.3448L39.2631 41.3129C42.3579 40.0319 44.5346 36.9828 44.5346 33.425V29.2969C44.5346 28.9302 44.248 28.6293 43.8818 28.6084C42.488 28.5291 41.3216 27.6591 40.8933 26.0806C40.7705 25.6278 40.2348 25.4337 39.8457 25.6958C36.4272 27.9987 32.3537 29.0451 28.2144 28.6698C27.8118 28.6334 27.4656 28.9528 27.4656 29.357V33.4251C27.4656 36.9828 29.6424 40.032 32.7372 41.313L32.7243 41.3449V41.9337C32.7243 43.9079 31.1212 45.4975 29.1527 45.4975C28.2053 45.4975 27.3062 45.7027 26.4967 46.0699L25.7329 45.4622C22.025 42.5077 21.1994 37.2126 23.8225 33.2734C24.7932 31.8165 25.3105 30.1061 25.3105 28.3561V24.6207C25.3105 19.8597 29.1701 16 33.9312 16H38.0691C42.8301 16 46.6898 19.8597 46.6898 24.6207V28.356C46.6898 30.104 47.207 31.8164 48.1777 33.2733C50.8104 37.2269 49.9612 42.5214 46.2674 45.4621Z" fill="#42434D"/>
        <path d="M39.3735 42.7604C37.2496 43.6494 34.9156 43.7184 32.627 42.7604C32.7438 42.2754 32.7244 41.9613 32.7244 41.3449L32.7373 41.313C34.8133 42.1747 37.1831 42.1764 39.2632 41.313L39.2761 41.3449C39.2761 41.9615 39.2566 42.2756 39.3735 42.7604Z" fill="#FFD6A6"/>
        <path d="M41.9633 16.9278C42.8437 17.3743 42.4611 18.718 41.4783 18.625C41.2074 18.5993 40.9327 18.5862 40.655 18.5862H36.5171C31.7561 18.5862 27.8964 22.4459 27.8964 27.2069V28.2559C27.8964 28.8752 27.4654 28.8552 27.4654 29.3569C27.4654 33.9105 27.4838 33.6222 27.417 33.8187C26.7407 35.8082 25.9286 36.0961 25.2697 38.2733C24.9108 39.4591 24.8048 40.6803 24.9291 41.8654C25.0306 42.8327 23.6837 43.2953 23.1981 42.2879C21.806 39.4037 22.024 35.9739 23.8223 33.2733C24.793 31.8164 25.3102 30.106 25.3102 28.356V24.6207C25.3102 19.8597 29.1699 16 33.9309 16H38.0688C39.4703 16 40.7936 16.3344 41.9633 16.9278Z" fill="#4D4E59"/>
        <path d="M34.3637 39.1422C35.6515 40.0043 34.67 41.9982 33.2077 41.4851C29.9933 40.3571 27.4653 37.3572 27.4653 33.425V29.3569C27.4653 28.9526 27.8119 28.6336 28.2145 28.6698C28.5448 28.6998 28.9076 28.7234 29.299 28.7354C30.0076 28.757 30.5688 29.342 30.5688 30.0509V32.0457C30.5688 35.048 32.0995 37.6266 34.3637 39.1422Z" fill="#FFF3E4"/>
        <path d="M32.077 46.3246C32.4861 46.6413 32.2699 47.3054 31.7525 47.3074C28.1031 47.321 25.3103 50.2513 25.3103 53.7359V55.9996H23.4138C23.0329 55.9996 22.7241 55.6908 22.7241 55.31V51.9255C22.7241 48.377 25.6008 45.4971 29.1526 45.4971C29.681 45.4971 30.1827 45.3824 30.6336 45.1772L30.6552 45.2238L32.077 46.3246Z" fill="#FFBD7B"/>
        <path d="M39.9233 46.3246C39.5142 46.6413 39.7304 47.3054 40.2478 47.3074C43.8972 47.321 46.69 50.2513 46.69 53.7359V55.9996H48.5865C48.9674 55.9996 49.2762 55.6908 49.2762 55.31V51.9255C49.2762 48.377 46.3995 45.4971 42.8477 45.4971C42.3193 45.4971 41.8176 45.3824 41.3667 45.1772L41.3451 45.2238L39.9233 46.3246Z" fill="#FAA157"/>
    </g>
    <defs>
        <clipPath id="clip0_2_17315">
            <rect width="40" height="40" fill="white" transform="translate(16 16)"/>
        </clipPath>
    </defs>
</svg>
