<svg width="72" height="72" viewBox="0 0 72 72" fill="none" xmlns="http://www.w3.org/2000/svg">
    <circle cx="36" cy="36" r="36" fill="#F9FAFC"/>
    <path d="M38.9616 45.8706H33.0381V52.5049H38.9616V45.8706Z" fill="#FDCC9B"/>
    <path d="M33.0386 46.6516C33.0386 46.6516 35.5303 48.2383 38.9621 47.8708V45.8701H33.0386V46.6516Z" fill="#FCBC85"/>
    <path d="M24.4968 38.8808C26.0931 38.8808 27.3871 37.4045 27.3871 35.5832C27.3871 33.762 26.0931 32.2856 24.4968 32.2856C22.9005 32.2856 21.6064 33.762 21.6064 35.5832C21.6064 37.4045 22.9005 38.8808 24.4968 38.8808Z" fill="#FCBC85"/>
    <path d="M47.5031 38.8808C49.0994 38.8808 50.3935 37.4045 50.3935 35.5832C50.3935 33.762 49.0994 32.2856 47.5031 32.2856C45.9068 32.2856 44.6128 33.762 44.6128 35.5832C44.6128 37.4045 45.9068 38.8808 47.5031 38.8808Z" fill="#FCBC85"/>
    <path d="M47.492 29.2845C47.492 24.4274 43.9379 20.873 36.0004 20.873C28.0629 20.873 24.5087 24.4272 24.5087 29.2845C24.5087 34.1418 23.6795 46.9366 36.0004 46.9366C48.3212 46.9366 47.492 34.1418 47.492 29.2845Z" fill="#FDCC9B"/>
    <path d="M36.0001 48.5361V55.9999H21.6064C21.6064 52.9787 29.1881 48.5361 36.0001 48.5361Z" fill="#F7941E"/>
    <path d="M36 48.5361V55.9999H50.3936C50.3936 52.9787 42.812 48.5361 36 48.5361Z" fill="#F7941E"/>
    <path d="M36.0001 48.5361C34.5512 48.5361 33.0676 48.7387 31.6294 49.0843C31.6391 49.0969 33.2246 51.1425 36.0001 51.1425C38.5702 51.1425 40.2788 49.3908 40.5265 49.1213C39.0397 48.7524 37.5014 48.5361 36.0001 48.5361Z" fill="#F36C21"/>
    <path d="M33.0381 48.7945C33.0381 48.7945 33.9044 49.869 35.9998 49.869C38.0951 49.869 38.9616 48.7945 38.9616 48.7945C38.9616 48.7945 35.8889 47.6759 33.0381 48.7945Z" fill="#FDCC9B"/>
    <path d="M45.4478 19.8369C45.4478 19.8369 41.1829 14.4169 32.3187 16.4605C23.4546 18.5039 22.7904 23.8352 23.057 29.022C23.3236 34.209 24.0344 37.2519 24.8751 36.8758C25.7158 36.4996 25.2783 33.0759 25.3672 32.2857C25.4561 31.4956 26.2557 27.9223 31.6468 28.4555C37.0378 28.9887 41.5807 27.0338 41.5807 27.0338C41.5807 27.0338 43.4095 29.3454 44.6129 29.7883C47.0178 30.6732 46.2291 36.5734 47.1714 36.5734C48.1136 36.5734 52.7338 22.9467 45.4478 19.8369Z" fill="#51362A"/>
</svg>
