<svg width="27" height="24" viewBox="0 0 27 24" fill="none" xmlns="http://www.w3.org/2000/svg">
<path d="M2.08137 23.558C2.67398 23.558 3.15096 23.3665 3.74358 23.0129L18.4722 14.1878C19.2527 13.7017 19.7008 13.1713 19.8597 12.5525V22.0258C19.8597 23.3223 20.5246 24 21.7821 24H25.0776C26.3496 24 27 23.3223 27 22.0258V1.95948C27 0.618785 26.3496 0 25.0776 0H21.7821C20.5246 0 19.8597 0.677716 19.8597 1.95948V11.418C19.7008 10.814 19.2527 10.2689 18.4722 9.79742L3.74358 0.957643C3.15096 0.604052 2.67398 0.412523 2.08137 0.412523C0.939508 0.412523 0 1.2965 0 2.94659V21.0387C0 22.6888 0.939508 23.558 2.08137 23.558Z" fill="#F9FAFC"/>
</svg>
