<svg width="113" height="35" viewBox="0 0 113 35" fill="none" xmlns="http://www.w3.org/2000/svg">
<path d="M22.577 20.3249L14.5746 0.408534H11.499L3.4668 20.3249H6.30346L8.06518 15.8758H17.9786L19.7403 20.3249H22.577ZM17.262 13.6961H8.81168L13.0219 2.94661L17.262 13.6961Z" fill="#061A40"/>
<path d="M33.0041 14.0843V12.1135H25.8377V14.0843H33.0041Z" fill="#061A40"/>
<path d="M40.7916 20.3249V12.4121H46.3156C50.287 12.4121 52.5563 9.66503 52.5563 6.41033C52.5563 3.15562 50.3168 0.408534 46.3156 0.408534H38.3132V20.3249H40.7916ZM46.017 10.2025H40.7916V2.61815H46.017C48.376 2.61815 49.9884 4.17085 49.9884 6.41033C49.9884 8.6498 48.376 10.2025 46.017 10.2025Z" fill="#061A40"/>
<path d="M69.3349 20.3249V18.1153H60.0784V0.408534H57.6V20.3249H69.3349Z" fill="#061A40"/>
<path d="M82.0497 20.6832C87.4543 20.6832 90.2014 17.5181 90.2014 12.5614V0.408534H87.6932V12.5316C87.6932 16.1744 85.7225 18.4736 82.0497 18.4736C78.377 18.4736 76.4361 16.1744 76.4361 12.5316V0.408534H73.9279V12.5913C73.9279 17.4883 76.675 20.6832 82.0497 20.6832Z" fill="#061A40"/>
<path d="M103.405 20.6832C108.779 20.6832 110.75 17.6973 110.75 14.8307C110.75 7.39569 98.9554 9.96362 98.9554 5.48468C98.9554 3.60352 100.687 2.31955 103.046 2.31955C105.226 2.31955 107.316 3.03618 108.809 4.70833L110.302 2.88689C108.63 1.12517 106.271 0.0800781 103.255 0.0800781C99.3137 0.0800781 96.3875 2.34941 96.3875 5.63398C96.3875 12.7406 108.182 9.87405 108.182 15.0099C108.182 16.5626 107.047 18.4736 103.494 18.4736C100.687 18.4736 98.5374 17.1001 97.2534 15.6071L95.7604 17.5181C97.4027 19.3694 99.9706 20.6832 103.405 20.6832Z" fill="#061A40"/>
<path d="M2.38898 34.7315V32.9894L4.00757 30.6109H3.40832L2.12952 32.526L0.850712 30.6109H0.251465L1.87623 32.9894V34.7315H2.38898Z" fill="#061A40"/>
<path d="M7.72004 34.8057C8.93707 34.8057 9.77107 33.8913 9.77107 32.6743C9.77107 31.4573 8.93707 30.543 7.72004 30.543C6.50301 30.543 5.67519 31.4573 5.67519 32.6743C5.67519 33.8913 6.50301 34.8057 7.72004 34.8057ZM7.72004 34.3485C6.79337 34.3485 6.20648 33.6319 6.20648 32.6743C6.20648 31.7106 6.79337 31.0001 7.72004 31.0001C8.64053 31.0001 9.23978 31.7106 9.23978 32.6743C9.23978 33.6319 8.64053 34.3485 7.72004 34.3485Z" fill="#061A40"/>
<path d="M13.7907 34.8057C14.9088 34.8057 15.4772 34.1508 15.4772 33.1253V30.6109H14.9583V33.1191C14.9583 33.8728 14.5505 34.3485 13.7907 34.3485C13.0308 34.3485 12.6292 33.8728 12.6292 33.1191V30.6109H12.1103V33.1315C12.1103 34.1446 12.6786 34.8057 13.7907 34.8057Z" fill="#061A40"/>
<path d="M20.9765 34.7315L19.8645 33.0512C20.4267 33.0017 20.9394 32.594 20.9394 31.8527C20.9394 31.0928 20.3958 30.6109 19.6421 30.6109H17.9864V34.7315H18.4992V33.0944H19.327L20.3711 34.7315H20.9765ZM19.5803 32.6434H18.4992V31.0681H19.5803C20.0684 31.0681 20.4081 31.3831 20.4081 31.8527C20.4081 32.316 20.0684 32.6434 19.5803 32.6434Z" fill="#061A40"/>
<path d="M26.9514 34.7315V33.0944H28.0943C28.916 33.0944 29.3855 32.526 29.3855 31.8527C29.3855 31.1793 28.9222 30.6109 28.0943 30.6109H26.4387V34.7315H26.9514ZM28.0326 32.6372H26.9514V31.0681H28.0326C28.5206 31.0681 28.8542 31.3893 28.8542 31.8527C28.8542 32.316 28.5206 32.6372 28.0326 32.6372Z" fill="#061A40"/>
<path d="M34.6599 34.7315L33.0042 30.6109H32.3679L30.7061 34.7315H31.293L31.6575 33.811H33.7085L34.073 34.7315H34.6599ZM33.5602 33.36H31.8119L32.683 31.136L33.5602 33.36Z" fill="#061A40"/>
<path d="M37.8589 34.7315V31.0681H39.1686V30.6109H36.0426V31.0681H37.3461V34.7315H37.8589Z" fill="#061A40"/>
<path d="M44.8294 34.7315V30.6109H44.3166V32.384H41.9073V30.6109H41.3945V34.7315H41.9073V32.8411H44.3166V34.7315H44.8294Z" fill="#061A40"/>
<path d="M52.0123 34.7315V31.0681H53.322V30.6109H50.1961V31.0681H51.4996V34.7315H52.0123Z" fill="#061A40"/>
<path d="M57.2571 34.8057C58.4741 34.8057 59.3081 33.8913 59.3081 32.6743C59.3081 31.4573 58.4741 30.543 57.2571 30.543C56.0401 30.543 55.2122 31.4573 55.2122 32.6743C55.2122 33.8913 56.0401 34.8057 57.2571 34.8057ZM57.2571 34.3485C56.3304 34.3485 55.7435 33.6319 55.7435 32.6743C55.7435 31.7106 56.3304 31.0001 57.2571 31.0001C58.1776 31.0001 58.7768 31.7106 58.7768 32.6743C58.7768 33.6319 58.1776 34.3485 57.2571 34.3485Z" fill="#061A40"/>
<path d="M67.4902 34.7315V34.2744H65.3033V32.8535H67.447V32.3963H65.3033V31.0681H67.4902V30.6109H64.7905V34.7315H67.4902Z" fill="#061A40"/>
<path d="M71.0384 33.4404V33.0326H69.5557V33.4404H71.0384Z" fill="#061A40"/>
<path d="M75.6087 34.7315V34.2744H73.6936V30.6109H73.1809V34.7315H75.6087Z" fill="#061A40"/>
<path d="M80.5396 34.7315V34.2744H78.3527V32.8535H80.4964V32.3963H78.3527V31.0681H80.5396V30.6109H77.8399V34.7315H80.5396Z" fill="#061A40"/>
<path d="M86.4292 34.7315L84.7735 30.6109H84.1372L82.4754 34.7315H83.0622L83.4267 33.811H85.4778L85.8423 34.7315H86.4292ZM85.3295 33.36H83.5812L84.4523 31.136L85.3295 33.36Z" fill="#061A40"/>
<path d="M91.5024 34.7315L90.3904 33.0512C90.9526 33.0017 91.4653 32.594 91.4653 31.8527C91.4653 31.0928 90.9217 30.6109 90.168 30.6109H88.5123V34.7315H89.0251V33.0944H89.8529L90.897 34.7315H91.5024ZM90.1062 32.6434H89.0251V31.0681H90.1062C90.5943 31.0681 90.934 31.3831 90.934 31.8527C90.934 32.316 90.5943 32.6434 90.1062 32.6434Z" fill="#061A40"/>
<path d="M97.2315 34.7315V30.6109H96.7188V33.8296L94.3465 30.6109H93.8214V34.7315H94.3341V31.4449L96.7373 34.7315H97.2315Z" fill="#061A40"/>
<path d="M100.253 34.7315V30.6109H99.7398V34.7315H100.253Z" fill="#061A40"/>
<path d="M106.172 34.7315V30.6109H105.66V33.8296L103.287 30.6109H102.762V34.7315H103.275V31.4449L105.678 34.7315H106.172Z" fill="#061A40"/>
<path d="M110.633 34.8118C111.306 34.8118 111.868 34.5277 112.251 34.0952V32.6125H110.324V33.0697H111.745V33.9037C111.535 34.1137 111.127 34.3485 110.633 34.3485C109.731 34.3485 109.045 33.6504 109.045 32.6743C109.045 31.6859 109.731 31.0001 110.633 31.0001C111.127 31.0001 111.566 31.2349 111.825 31.5685L112.233 31.309C111.875 30.8642 111.368 30.543 110.633 30.543C109.459 30.543 108.514 31.3893 108.514 32.6743C108.514 33.9531 109.459 34.8118 110.633 34.8118Z" fill="#061A40"/>
</svg>
