<svg width="85" height="67" viewBox="0 0 85 67" fill="none" xmlns="http://www.w3.org/2000/svg">
<path d="M24.3408 7.89982C24.784 6.98327 25.7123 6.40095 26.7304 6.40095L39.471 6.40095C41.4292 6.40095 42.7132 8.44894 41.86 10.2115L18.3562 58.7701C17.9128 59.6861 16.9848 60.2679 15.9671 60.2679L3.25281 60.2679C1.29513 60.2679 0.0111089 58.2209 0.863257 56.4584L24.3408 7.89982Z" fill="#061A40"/>
<path fill-rule="evenodd" clip-rule="evenodd" d="M51.8263 6.40137C52.8444 6.40137 53.7727 6.98368 54.2159 7.90023L59.9906 19.8441C60.8428 21.6066 59.5587 23.6536 57.601 23.6536H44.8669C43.8493 23.6536 42.9212 23.0718 42.4779 22.1558L36.6967 10.2119C35.8435 8.44935 37.1275 6.40137 39.0857 6.40137L51.8263 6.40137Z" fill="#061A40"/>
<path d="M65.8245 31.4698C65.3843 30.5454 64.4518 29.9566 63.428 29.9566L50.6721 29.9566C48.7204 29.9566 47.4362 31.9922 48.2766 33.7537L60.2052 58.7563C60.6457 59.6797 61.5777 60.2677 62.6007 60.2677L75.3326 60.2677C77.2834 60.2676 78.5676 58.2338 77.729 56.4724L65.8245 31.4698Z" fill="#FFAF4E"/>
<path d="M39.8918 40.4023C39.5438 39.5306 40.1858 38.583 41.1243 38.583H79.0728C79.6157 38.583 80.1039 38.9137 80.3053 39.4179L84.5449 50.0347C84.893 50.9063 84.251 51.854 83.3124 51.854H45.3639C44.821 51.854 44.3328 51.5233 44.1315 51.019L39.8918 40.4023Z" fill="#FFAF4E"/>
<path fill-rule="evenodd" clip-rule="evenodd" d="M63.4274 29.957C64.4512 29.957 65.3837 30.5459 65.8239 31.4702L69.2105 38.5831H79.0728C79.6157 38.5831 80.1039 38.9138 80.3053 39.418L84.5449 50.0348C84.893 50.9064 84.251 51.8541 83.3124 51.8541H75.5293L77.7284 56.4729C78.567 58.2342 77.2828 60.2681 75.332 60.2681H62.6001C61.5771 60.2681 60.6451 59.6801 60.2046 58.7568L56.9114 51.8541H45.3639C44.821 51.8541 44.3328 51.5234 44.1315 51.0191L39.8918 40.4024C39.5438 39.5308 40.1858 38.5831 41.1243 38.5831H50.5799L48.276 33.7541C47.4356 31.9926 48.7198 29.957 50.6715 29.957H63.4274Z" fill="url(#paint0_radial_18_19270)"/>
<path d="M65.6053 32.0928C65.1908 31.2222 64.3124 30.6675 63.3481 30.6675L50.7595 30.6675C48.9212 30.6675 47.7115 32.5849 48.5031 34.244L60.1839 58.7273C60.5988 59.597 61.4766 60.1508 62.4403 60.1508L75.0054 60.1508C76.8428 60.1508 78.0525 58.2351 77.2626 56.5761L65.6053 32.0928Z" fill="#FFAF4E"/>
<path fill-rule="evenodd" clip-rule="evenodd" d="M59.8753 30.667C62.9611 30.667 65.7718 32.4418 67.0983 35.2279L68.9218 39.0577H76.6794C78.3158 39.0577 79.7872 40.0545 80.3941 41.5743L82.3543 46.4828C83.4034 49.1099 81.4684 51.9662 78.6395 51.9662H74.3027C74.4028 56.2432 70.9891 60.1503 66.2951 60.1503H65.9102C62.8266 60.1503 60.0176 58.3781 58.6898 55.595L56.9585 51.9662H47.5617C45.9253 51.9662 44.4539 50.9694 43.847 49.4496L41.8868 44.5411C40.8377 41.914 42.7727 39.0577 45.6016 39.0577H51.4773C51.2602 34.7011 54.7074 30.667 59.4774 30.667H59.8753Z" fill="url(#paint1_radial_18_19270)"/>
<defs>
<radialGradient id="paint0_radial_18_19270" cx="0" cy="0" r="1" gradientUnits="userSpaceOnUse" gradientTransform="translate(62.2184 45.1126) rotate(90) scale(15.1555 22.4225)">
<stop stop-color="#FFDBAE"/>
<stop offset="0.265625" stop-color="#FFCF94" stop-opacity="0.729167"/>
<stop offset="1" stop-color="#FFAF4E" stop-opacity="0"/>
</radialGradient>
<radialGradient id="paint1_radial_18_19270" cx="0" cy="0" r="1" gradientUnits="userSpaceOnUse" gradientTransform="translate(62.1206 45.4086) rotate(90) scale(14.7416 20.5229)">
<stop stop-color="#FFDBAE"/>
<stop offset="0.265625" stop-color="#FFCF94" stop-opacity="0.729167"/>
<stop offset="1" stop-color="#FFAF4E" stop-opacity="0"/>
</radialGradient>
</defs>
</svg>
